<svg width="30" height="27" viewBox="0 0 30 27" fill="none" xmlns="http://www.w3.org/2000/svg">
<path d="M27.4023 9.14652H24.8779C24.073 9.14652 23.4146 9.80491 23.4146 10.6098V15.5853C23.4146 16.683 22.5365 17.5608 21.4391 17.5608L12.2563 17.561C11.5611 17.561 10.9757 18.1465 10.9757 18.8417V19.3538C10.9757 20.7806 12.1466 21.9515 13.5734 21.9515H20.3416L24.5123 26.2684C24.7317 26.4879 24.988 26.5976 25.2807 26.5976C25.4637 26.5976 25.6466 26.5611 25.8294 26.4514C26.1586 26.2684 26.3415 25.8659 26.3415 25.5002V21.9515H27.4024C28.8292 21.9515 30 20.7806 30 19.3538V11.7441C30 10.3173 28.8292 9.14648 27.4024 9.14648L27.4023 9.14652Z" fill="white"/>
<path d="M19.3536 3.2398e-05H2.59766C1.17085 3.2398e-05 0 1.17088 0 2.59769V13.5C0 14.9268 1.17085 16.0977 2.59766 16.0977H4.39039V20.3416C4.39039 20.7805 4.64661 21.183 5.08557 21.3295C5.19531 21.3659 5.34179 21.4027 5.45152 21.4027C5.74424 21.4027 6.03694 21.2565 6.25639 21.0367L10.4268 16.0976H19.3535C20.7804 16.0976 21.9512 14.9268 21.9512 13.5L21.951 2.59766C21.951 1.17085 20.7804 0 19.3535 0L19.3536 3.2398e-05ZM5.85372 9.76821C4.79289 9.76821 3.91472 8.89011 3.91472 7.82921C3.91472 6.76838 4.79282 5.85375 5.85372 5.85375C6.91462 5.85375 7.79273 6.73186 7.79273 7.79276C7.79273 8.85366 6.91462 9.76821 5.85372 9.76821ZM10.9755 9.76821C9.91465 9.76821 9.03648 8.89011 9.03648 7.82921C9.03648 6.76838 9.91459 5.85375 10.9755 5.85375C12.0363 5.85375 12.9145 6.73186 12.9145 7.79276C12.9145 8.85366 12.0366 9.76821 10.9755 9.76821ZM16.0975 9.76821C15.0367 9.76821 14.1585 8.89011 14.1585 7.82921C14.1585 6.76838 15.0364 5.85375 16.0975 5.85375C17.1583 5.85375 18.0365 6.73186 18.0365 7.79276C18.0365 8.85366 17.1584 9.76821 16.0975 9.76821Z" fill="white"/>
</svg>
