<svg width="30" height="31" viewBox="0 0 30 31" fill="none" xmlns="http://www.w3.org/2000/svg">
<path d="M14.8394 19.4133C14.8394 19.316 14.9043 19.251 15.0017 19.251C15.0991 19.251 15.1641 19.316 15.1641 19.4133C15.1641 19.5107 15.0991 19.5757 15.0017 19.5757C14.9043 19.5755 14.8394 19.5107 14.8394 19.4133Z" fill="white"/>
<path d="M12.7292 18.9911C12.6642 18.9587 12.6318 18.8287 12.6642 18.7637C12.6966 18.6987 12.7939 18.6664 12.8915 18.6987C12.9565 18.7311 12.9889 18.8285 12.9565 18.9261C12.9242 18.9911 12.8592 19.0235 12.8268 19.0235C12.7942 18.9911 12.7616 18.9911 12.7292 18.9911V18.9911Z" fill="white"/>
<path d="M17.0468 18.9264C17.0144 18.8614 17.0144 18.7317 17.1118 18.699C17.1768 18.6667 17.3066 18.6667 17.3392 18.764C17.3716 18.829 17.3716 18.9588 17.2742 18.9914C17.2418 18.9914 17.2092 19.0238 17.1768 19.0238C17.1442 18.9914 17.0792 18.959 17.0468 18.9264V18.9264Z" fill="white"/>
<path d="M11.0736 17.3034C11.0412 17.2384 11.0412 17.1086 11.1385 17.076C11.2035 17.0436 11.3333 17.0436 11.3659 17.141C11.3983 17.206 11.3983 17.3034 11.3009 17.3683C11.2685 17.3683 11.2359 17.4007 11.2035 17.4007C11.1385 17.4007 11.1062 17.3683 11.0736 17.3034V17.3034Z" fill="white"/>
<path d="M18.735 17.368C18.67 17.3357 18.6377 17.2383 18.67 17.1407C18.7024 17.0757 18.7998 17.0433 18.8974 17.0757C18.9624 17.1081 18.9948 17.2054 18.9624 17.303C18.93 17.368 18.865 17.4004 18.8326 17.4004C18.7676 17.4004 18.735 17.368 18.735 17.368V17.368Z" fill="white"/>
<path d="M10.4568 15.0305C10.4568 14.9332 10.5218 14.8682 10.6192 14.8682C10.7165 14.8682 10.7815 14.9332 10.7815 15.0305C10.7815 15.1279 10.7165 15.1929 10.6192 15.1929C10.5216 15.1929 10.4568 15.1279 10.4568 15.0305Z" fill="white"/>
<path d="M19.2219 15.0307C19.2219 14.9333 19.2869 14.8359 19.3843 14.8359C19.4817 14.8359 19.5467 14.9009 19.5467 14.9983C19.5467 15.0957 19.4817 15.1607 19.3843 15.1607C19.2869 15.193 19.2219 15.1281 19.2219 15.0307V15.0307Z" fill="white"/>
<path d="M11.106 12.9857C11.041 12.9533 11.0086 12.856 11.041 12.7584C11.0734 12.6934 11.1708 12.661 11.2684 12.6934C11.3334 12.7257 11.3657 12.8557 11.3334 12.9207C11.301 12.9857 11.236 13.0181 11.2036 13.0181C11.171 13.0183 11.1384 13.0183 11.106 12.9857V12.9857Z" fill="white"/>
<path d="M18.6376 12.9205C18.6053 12.8555 18.6053 12.7258 18.7026 12.6932C18.7676 12.6608 18.8974 12.6608 18.93 12.7582C18.9624 12.8232 18.9624 12.9529 18.865 12.9855C18.8326 12.9855 18.8 13.0179 18.7676 13.0179C18.735 12.9853 18.6703 12.9529 18.6376 12.9205V12.9205Z" fill="white"/>
<path d="M12.6643 11.3297C12.6319 11.2647 12.6319 11.1674 12.7292 11.1024C12.7942 11.07 12.924 11.07 12.9566 11.1674C12.989 11.2323 12.989 11.3621 12.8916 11.3947C12.8592 11.3947 12.8266 11.4271 12.7942 11.4271C12.7292 11.3947 12.6966 11.3621 12.6643 11.3297V11.3297Z" fill="white"/>
<path d="M17.1117 11.3622C17.0468 11.3298 17.0144 11.2324 17.0468 11.1348C17.0791 11.0698 17.1765 11.0374 17.2741 11.0698C17.3391 11.1022 17.3715 11.1996 17.3391 11.2972C17.3067 11.3622 17.2417 11.3946 17.2093 11.3946C17.1444 11.3948 17.1117 11.3948 17.1117 11.3622V11.3622Z" fill="white"/>
<path d="M14.8394 10.6482C14.8394 10.5508 14.9043 10.4858 15.0017 10.4858C15.0991 10.4858 15.1641 10.5508 15.1641 10.6482C15.1641 10.7456 15.0991 10.8106 15.0017 10.8106C14.9043 10.8106 14.8394 10.7456 14.8394 10.6482Z" fill="white"/>
<path d="M15.4886 20.8743C15.4886 20.777 15.5536 20.647 15.651 20.647C15.7484 20.647 15.8784 20.712 15.8784 20.8093C15.8784 20.9067 15.8134 21.0367 15.716 21.0367H15.6836C15.586 21.0367 15.4886 20.9717 15.4886 20.8743H15.4886Z" fill="white"/>
<path d="M13.5408 20.9065C13.4434 20.8741 13.3784 20.7767 13.3784 20.6467C13.4108 20.5494 13.5082 20.4844 13.6382 20.4844C13.7355 20.5168 13.8005 20.6141 13.8005 20.7441C13.7681 20.8415 13.7031 20.9065 13.6058 20.9065H13.5408Z" fill="white"/>
<path d="M17.5339 20.3225C17.4689 20.2251 17.5339 20.0952 17.6312 20.0628C17.7286 19.9978 17.8586 20.0628 17.891 20.1602C17.956 20.2575 17.891 20.3875 17.7936 20.4199C17.7612 20.4523 17.7286 20.4523 17.6962 20.4523C17.6312 20.4199 17.5662 20.3873 17.5339 20.3225V20.3225Z" fill="white"/>
<path d="M11.528 19.9977C11.4306 19.9327 11.3982 19.803 11.463 19.7056C11.528 19.6082 11.6578 19.5759 11.7551 19.6406C11.8525 19.7056 11.8849 19.8354 11.8201 19.9327C11.7877 19.9977 11.7227 20.0301 11.6578 20.0301C11.6256 20.0301 11.5606 19.9977 11.528 19.9977V19.9977Z" fill="white"/>
<path d="M19.222 19.0563C19.1246 18.9913 19.1246 18.8616 19.1896 18.7642C19.2546 18.6668 19.3843 18.6668 19.4817 18.7318C19.5791 18.7968 19.5791 18.9266 19.5141 19.0239C19.4817 19.0563 19.4167 19.0889 19.3517 19.0889C19.3193 19.1211 19.287 19.0887 19.222 19.0563V19.0563Z" fill="white"/>
<path d="M10.0023 18.4392C9.9373 18.3418 9.96991 18.2118 10.0673 18.1471C10.1647 18.0821 10.2946 18.1147 10.3594 18.2121C10.4244 18.3094 10.3918 18.4394 10.2944 18.5042C10.262 18.5366 10.2294 18.5366 10.1647 18.5366C10.0997 18.5366 10.0347 18.5042 10.0023 18.4392V18.4392Z" fill="white"/>
<path d="M20.3906 17.3033C20.2932 17.2709 20.2282 17.1409 20.2608 17.0435C20.2932 16.9462 20.4232 16.8812 20.5206 16.9138C20.6179 16.9462 20.6829 17.0761 20.6503 17.1735C20.6179 17.2385 20.5529 17.3033 20.4556 17.3033H20.3906Z" fill="white"/>
<path d="M9.1258 16.4267C9.09342 16.3293 9.15819 16.1993 9.28817 16.1669C9.38554 16.1346 9.51552 16.1993 9.54791 16.3293C9.58029 16.4267 9.51552 16.5567 9.38554 16.589H9.35316C9.22318 16.589 9.1258 16.5243 9.1258 16.4267H9.1258Z" fill="white"/>
<path d="M20.6504 15.0307C20.6504 14.9333 20.7478 14.8359 20.8451 14.8359C20.9425 14.8359 21.0399 14.9333 21.0399 15.0307C21.0399 15.1281 20.9425 15.2254 20.8451 15.2254C20.7478 15.2254 20.6504 15.1281 20.6504 15.0307Z" fill="white"/>
<path d="M9.19068 14.4791C9.0933 14.4791 8.99593 14.3493 9.02831 14.2517C9.02831 14.1543 9.15807 14.057 9.25567 14.0893C9.35304 14.0893 9.45042 14.2191 9.41803 14.3167C9.38542 14.4141 9.32043 14.4791 9.19068 14.4791Z" fill="white"/>
<path d="M20.0335 12.4983C19.9685 12.4009 20.0335 12.2709 20.1309 12.2386C20.2282 12.1736 20.3582 12.2386 20.3906 12.3359C20.4556 12.4333 20.3906 12.5633 20.2932 12.5957C20.2608 12.5957 20.2282 12.6281 20.1959 12.6281C20.1309 12.5957 20.0659 12.5633 20.0335 12.4983V12.4983Z" fill="white"/>
<path d="M9.74257 12.4337C9.6452 12.3687 9.61281 12.2713 9.6452 12.174C9.71019 12.0766 9.80756 12.0442 9.90493 12.0766C10.0023 12.1416 10.0347 12.239 10.0023 12.3363C9.96993 12.4013 9.90493 12.4337 9.80756 12.4337C9.80733 12.4663 9.77495 12.4663 9.74257 12.4337Z" fill="white"/>
<path d="M18.8 10.8754C18.7026 10.8104 18.7026 10.6807 18.8 10.5833C18.8649 10.4859 18.9947 10.4859 19.0921 10.5833C19.1895 10.6483 19.1895 10.778 19.0921 10.8754C19.0597 10.9078 18.9947 10.9404 18.9297 10.9404C18.8973 10.9078 18.8323 10.9078 18.8 10.8754V10.8754Z" fill="white"/>
<path d="M11.0087 10.7456C10.9437 10.6483 10.9437 10.5183 11.0411 10.4535C11.1384 10.3885 11.2684 10.3885 11.3332 10.4859C11.3982 10.5833 11.3982 10.7132 11.3008 10.778C11.2684 10.8106 11.2358 10.8106 11.171 10.8106C11.1061 10.8106 11.0734 10.8106 11.0087 10.7456V10.7456Z" fill="white"/>
<path d="M17.0793 9.77153C16.9819 9.73915 16.9169 9.60917 16.9495 9.51179C16.9819 9.41442 17.1119 9.34943 17.2093 9.38204C17.3067 9.41442 17.3716 9.5444 17.339 9.64178C17.3067 9.70677 17.2417 9.77153 17.1443 9.77153C17.1117 9.80391 17.1117 9.80391 17.0793 9.77153Z" fill="white"/>
<path d="M12.7942 9.60947C12.7618 9.5121 12.8266 9.38211 12.9239 9.34973C13.0213 9.31735 13.1513 9.38211 13.1837 9.47949C13.2161 9.57686 13.1837 9.70684 13.0539 9.73923H12.9889C12.9239 9.73923 12.8266 9.70684 12.7942 9.60947Z" fill="white"/>
<path d="M15.0666 9.38217C14.9692 9.38217 14.8718 9.2848 14.8718 9.18742C14.8718 9.09005 14.9692 8.99268 15.0666 8.99268C15.1639 8.99268 15.2613 9.09005 15.2613 9.18742C15.2613 9.2848 15.1963 9.38217 15.0666 9.38217Z" fill="white"/>
<path d="M14.742 22.5623C14.6122 22.5623 14.5146 22.4325 14.5146 22.3026C14.5146 22.1728 14.6444 22.0752 14.7744 22.0752C14.9041 22.0752 15.0017 22.205 15.0017 22.3349C15.0017 22.4647 14.872 22.5623 14.742 22.5623Z" fill="white"/>
<path d="M16.4626 22.2051C16.4302 22.0754 16.5276 21.9454 16.6573 21.913C16.7871 21.8806 16.917 21.978 16.9494 22.1078C16.9818 22.2375 16.8844 22.3675 16.7547 22.3999H16.6897C16.5925 22.3673 16.4952 22.3025 16.4626 22.2051Z" fill="white"/>
<path d="M12.7617 22.2376C12.6319 22.2052 12.5669 22.0753 12.5993 21.9455C12.6317 21.8157 12.7617 21.7508 12.8914 21.7831C13.0212 21.8155 13.0862 21.9455 13.0538 22.0753C13.0214 22.1726 12.924 22.2376 12.8264 22.2376H12.7617Z" fill="white"/>
<path d="M18.313 21.5559C18.248 21.4262 18.2806 21.2962 18.4104 21.2312C18.5401 21.1662 18.6701 21.1988 18.7351 21.3286C18.8001 21.4583 18.7675 21.5883 18.6377 21.6533C18.6053 21.6857 18.5727 21.6857 18.508 21.6857C18.4104 21.6859 18.3454 21.6209 18.313 21.5559V21.5559Z" fill="white"/>
<path d="M10.9438 21.3936C10.8464 21.3286 10.814 21.1663 10.8788 21.0689C10.9438 20.9715 11.1061 20.9391 11.2035 21.0039C11.3009 21.0689 11.3333 21.2313 11.2685 21.3286C11.2361 21.3936 11.1387 21.426 11.0737 21.426C11.0411 21.426 10.9762 21.426 10.9438 21.3936V21.3936Z" fill="white"/>
<path d="M19.9037 20.4521C19.8063 20.3547 19.8063 20.1924 19.9037 20.095C20.0011 19.9976 20.1635 19.9976 20.2608 20.095C20.3582 20.1924 20.3582 20.3547 20.2608 20.4521C20.2284 20.4845 20.1635 20.5171 20.0985 20.5171C20.0011 20.5171 19.9363 20.4845 19.9037 20.4521Z" fill="white"/>
<path d="M9.41793 20.095C9.32055 19.9976 9.32055 19.8352 9.45031 19.7379C9.54768 19.6405 9.71005 19.6405 9.80742 19.7703C9.9048 19.8676 9.9048 20.03 9.77504 20.1274C9.74266 20.1597 9.67767 20.1924 9.61267 20.1924C9.5153 20.16 9.45031 20.1276 9.41793 20.095V20.095Z" fill="white"/>
<path d="M21.1698 18.959C21.04 18.894 21.0074 18.7316 21.0724 18.6342C21.1374 18.5045 21.2997 18.4719 21.3971 18.5369C21.5269 18.6019 21.5595 18.7642 21.4945 18.8616C21.4621 18.9266 21.3647 18.9914 21.2997 18.9914C21.2348 18.9914 21.2024 18.9914 21.1698 18.959V18.959Z" fill="white"/>
<path d="M8.28166 18.4393C8.21667 18.3095 8.28166 18.1795 8.37903 18.1145C8.50879 18.0496 8.63877 18.1145 8.70376 18.2119C8.76875 18.3417 8.70376 18.4717 8.60639 18.5366C8.574 18.569 8.54139 18.569 8.50901 18.569C8.37926 18.569 8.31427 18.5043 8.28166 18.4393V18.4393Z" fill="white"/>
<path d="M21.9814 17.2059C21.8516 17.1735 21.7866 17.0435 21.819 16.9138C21.8514 16.784 21.9814 16.719 22.1111 16.7514C22.2409 16.7838 22.3059 16.9138 22.2735 17.0435C22.2411 17.1409 22.1438 17.2059 22.0462 17.2059H21.9814Z" fill="white"/>
<path d="M7.60001 16.524C7.56763 16.3942 7.66501 16.2642 7.79476 16.2319C7.92452 16.1995 8.0545 16.2968 8.08688 16.4266C8.11926 16.5564 8.02189 16.6863 7.89213 16.7187H7.85975C7.72977 16.7187 7.6324 16.6537 7.60001 16.524V16.524Z" fill="white"/>
<path d="M22.0463 15.0306C22.0463 14.9008 22.1436 14.8032 22.2736 14.8032C22.4034 14.8032 22.501 14.9006 22.501 15.0306C22.501 15.1603 22.4036 15.2579 22.2736 15.2579C22.1762 15.2579 22.0463 15.1603 22.0463 15.0306Z" fill="white"/>
<path d="M7.69733 14.7708C7.56757 14.7708 7.46997 14.641 7.46997 14.511C7.46997 14.3813 7.59973 14.2837 7.72971 14.2837C7.85946 14.2837 7.95706 14.4134 7.95706 14.5434C7.95706 14.6734 7.85969 14.7708 7.69733 14.7708Z" fill="white"/>
<path d="M8.02204 12.8557C7.89228 12.8233 7.82729 12.6609 7.85967 12.5309C7.89206 12.4012 8.05442 12.3362 8.1844 12.3686C8.31416 12.401 8.37915 12.5633 8.34677 12.6933C8.31439 12.7907 8.21701 12.8557 8.11941 12.8557C8.0868 12.8881 8.05442 12.8557 8.02204 12.8557Z" fill="white"/>
<path d="M21.4944 12.2711C21.4294 12.1414 21.4944 12.0114 21.6241 11.9464C21.7539 11.8814 21.8839 11.9464 21.9489 12.0762C22.0138 12.2059 21.9489 12.3359 21.8191 12.4009C21.7867 12.4009 21.7541 12.4333 21.7217 12.4333C21.6241 12.4335 21.5594 12.3685 21.4944 12.2711V12.2711Z" fill="white"/>
<path d="M8.83354 11.1026C8.73617 11.0376 8.70378 10.8752 8.76855 10.7779C8.83354 10.6805 8.9959 10.6481 9.09328 10.7129C9.19065 10.7779 9.22303 10.9402 9.15827 11.0376C9.12589 11.1026 9.02851 11.135 8.96352 11.135C8.93091 11.1352 8.8983 11.1352 8.83354 11.1026V11.1026Z" fill="white"/>
<path d="M20.553 10.6482C20.4556 10.5508 20.488 10.3885 20.5853 10.3235C20.6827 10.2261 20.8451 10.2585 20.9101 10.3559C21.0074 10.4532 20.9751 10.6156 20.8777 10.6806C20.8453 10.713 20.7803 10.7456 20.7153 10.7456C20.6503 10.7456 20.5853 10.7132 20.553 10.6482V10.6482Z" fill="white"/>
<path d="M10.0996 9.60929C10.0022 9.51192 10.0346 9.34956 10.132 9.25218C10.2293 9.15481 10.3917 9.18719 10.4891 9.28456C10.5865 9.38194 10.5541 9.5443 10.4567 9.64168C10.4243 9.67406 10.3593 9.70667 10.2943 9.70667C10.2294 9.70667 10.1644 9.67428 10.0996 9.60929V9.60929Z" fill="white"/>
<path d="M19.1895 9.34967C19.0921 9.28468 19.0597 9.12232 19.1245 9.02495C19.1895 8.92757 19.3519 8.89519 19.4492 8.95995C19.5466 9.02494 19.579 9.18731 19.5142 9.28468C19.4818 9.34967 19.3845 9.38206 19.3195 9.38206C19.2871 9.41466 19.2221 9.38206 19.1895 9.34967V9.34967Z" fill="white"/>
<path d="M11.7229 8.5055C11.6579 8.37575 11.7229 8.24576 11.8526 8.18077C11.9824 8.11578 12.1124 8.18077 12.1774 8.31053C12.2424 8.44029 12.1774 8.57027 12.0476 8.63526C12.0152 8.63526 11.9826 8.66764 11.9502 8.66764C11.8526 8.63526 11.7553 8.60288 11.7229 8.5055V8.5055Z" fill="white"/>
<path d="M17.5338 8.44044C17.404 8.40805 17.339 8.24569 17.404 8.11571C17.4364 7.98595 17.5988 7.92096 17.7288 7.98595C17.8585 8.01833 17.9235 8.1807 17.8585 8.31068C17.8261 8.40805 17.7288 8.47304 17.6312 8.47304C17.5988 8.47282 17.5662 8.44044 17.5338 8.44044Z" fill="white"/>
<path d="M13.5408 7.85649C13.5084 7.72674 13.6058 7.59675 13.7356 7.56437C13.8653 7.53199 13.9953 7.62936 14.0277 7.75912C14.0601 7.88887 13.9627 8.01886 13.8329 8.05124H13.8006C13.6706 8.08385 13.5732 7.98647 13.5408 7.85649H13.5408Z" fill="white"/>
<path d="M15.7159 8.01834C15.5861 8.01834 15.4885 7.88859 15.4885 7.7586C15.4885 7.62885 15.6183 7.53125 15.7483 7.53125C15.878 7.53125 15.9756 7.66101 15.9756 7.79099C15.9756 7.92097 15.8456 8.01834 15.7159 8.01834Z" fill="white"/>
<path d="M14.4823 24.0558C14.3199 24.0558 14.2225 23.926 14.2225 23.7636C14.2225 23.6013 14.3523 23.5039 14.5147 23.5039C14.677 23.5039 14.7744 23.6337 14.7744 23.796C14.7744 23.926 14.677 24.0558 14.4823 24.0558C14.5149 24.0558 14.5149 24.0558 14.4823 24.0558Z" fill="white"/>
<path d="M16.0081 23.7311C15.9757 23.5688 16.1055 23.439 16.2354 23.4064C16.3978 23.374 16.5276 23.5038 16.5602 23.6337C16.5925 23.7961 16.4628 23.9259 16.3328 23.9585H16.3004C16.1381 23.9909 16.0407 23.8611 16.0081 23.7311H16.0081Z" fill="white"/>
<path d="M12.6967 23.7636C12.5343 23.7313 12.4693 23.5689 12.5019 23.4065C12.5343 23.2442 12.6967 23.1792 12.8591 23.2118C13.0214 23.2442 13.0864 23.4065 13.0538 23.5689C13.0214 23.6987 12.8914 23.7636 12.7941 23.7636H12.6967V23.7636Z" fill="white"/>
<path d="M17.7611 23.3412C17.6961 23.2114 17.7934 23.0491 17.9234 22.9841C18.0532 22.9191 18.2155 23.0165 18.2805 23.1464C18.3455 23.3088 18.2482 23.4712 18.1182 23.5036C18.0858 23.5036 18.0532 23.5359 18.0208 23.5359C17.8908 23.5359 17.7934 23.4712 17.7611 23.3412V23.3412Z" fill="white"/>
<path d="M10.9762 23.1141C10.8464 23.0491 10.7814 22.8867 10.8464 22.7246C10.9114 22.5948 11.0738 22.5298 11.2359 22.5948C11.3657 22.6598 11.4307 22.8222 11.3657 22.9843C11.3009 23.0815 11.2035 23.1465 11.1062 23.1465C11.0412 23.1465 11.0088 23.1465 10.9762 23.1141V23.1141Z" fill="white"/>
<path d="M19.3843 22.6273C19.2869 22.4975 19.3519 22.3352 19.4816 22.2378C19.6114 22.1404 19.7738 22.2054 19.8711 22.3352C19.9685 22.4649 19.9035 22.6273 19.7738 22.7247C19.7414 22.757 19.6764 22.757 19.6114 22.757C19.514 22.7573 19.4167 22.7247 19.3843 22.6273V22.6273Z" fill="white"/>
<path d="M9.41796 22.1402C9.2882 22.0428 9.28821 21.8805 9.38558 21.7507C9.48295 21.621 9.64532 21.621 9.77507 21.7183C9.90483 21.8157 9.90483 21.9781 9.80746 22.1078C9.74246 22.1728 9.6777 22.2052 9.5801 22.2052C9.54794 22.2052 9.48295 22.1726 9.41796 22.1402V22.1402Z" fill="white"/>
<path d="M20.8127 21.5885C20.7153 21.4911 20.7153 21.2964 20.8127 21.199C20.91 21.1016 21.1048 21.1016 21.2021 21.199C21.2995 21.2964 21.2995 21.4911 21.2021 21.5885C21.1372 21.6535 21.0724 21.6535 21.0074 21.6535C20.9426 21.6859 20.8776 21.6533 20.8127 21.5885Z" fill="white"/>
<path d="M8.08687 20.8739C7.9895 20.7442 7.9895 20.5818 8.11925 20.4845C8.24901 20.3871 8.41137 20.3871 8.50875 20.5168C8.60612 20.6466 8.60612 20.809 8.47637 20.9063C8.41138 20.9387 8.34661 20.9713 8.28162 20.9713C8.24924 20.9713 8.15186 20.9389 8.08687 20.8739V20.8739Z" fill="white"/>
<path d="M22.0138 20.2899C21.884 20.1925 21.8514 20.0301 21.9488 19.9004C22.0462 19.7706 22.2085 19.738 22.3383 19.8354C22.468 19.9328 22.5006 20.0951 22.4033 20.2249C22.3383 20.2899 22.2735 20.3546 22.1759 20.3546C22.1111 20.3225 22.0785 20.3225 22.0138 20.2899V20.2899Z" fill="white"/>
<path d="M7.0481 19.3482C6.98311 19.2185 7.01572 19.0561 7.14547 18.9587C7.27523 18.8938 7.43759 18.9264 7.53497 19.0561C7.59996 19.1859 7.56735 19.3482 7.43759 19.4456C7.40521 19.478 7.34022 19.478 7.30784 19.478C7.21046 19.5106 7.11309 19.4456 7.0481 19.3482V19.3482Z" fill="white"/>
<path d="M22.9228 18.764C22.793 18.699 22.728 18.5367 22.7604 18.4069C22.8254 18.2772 22.9878 18.2122 23.1175 18.2446C23.2473 18.3096 23.3123 18.4719 23.2799 18.6017C23.2475 18.699 23.1175 18.764 23.0202 18.764H22.9228V18.764Z" fill="white"/>
<path d="M6.36637 17.6601C6.33399 17.4978 6.39875 17.368 6.56112 17.303C6.72348 17.2706 6.85324 17.3354 6.91823 17.4978C6.95061 17.6601 6.88585 17.7899 6.72348 17.8549H6.62611C6.49635 17.8549 6.39898 17.7901 6.36637 17.6601Z" fill="white"/>
<path d="M23.5396 17.0759C23.3772 17.0435 23.2798 16.8811 23.3122 16.7511C23.3446 16.5888 23.507 16.4914 23.637 16.5238C23.7993 16.5562 23.8967 16.7185 23.8643 16.8485C23.8319 16.9783 23.7346 17.0759 23.6046 17.0759H23.5396Z" fill="white"/>
<path d="M6.00928 15.8746C6.00928 15.7123 6.10665 15.5825 6.26902 15.5825C6.43138 15.5825 6.56114 15.6799 6.56114 15.8423C6.56114 16.0046 6.46376 16.1344 6.3014 16.1344H6.26902C6.13926 16.102 6.00928 16.0046 6.00928 15.8746V15.8746Z" fill="white"/>
<path d="M23.4747 15.0309C23.4747 14.8685 23.6045 14.7388 23.7669 14.7388C23.9292 14.7388 24.059 14.8685 24.059 15.0309C24.059 15.1933 23.9292 15.323 23.7669 15.323C23.6045 15.323 23.4747 15.1933 23.4747 15.0309Z" fill="white"/>
<path d="M6.26889 14.3491C6.10653 14.3167 6.00916 14.1868 6.00916 14.0244C6.04154 13.862 6.17152 13.7646 6.33388 13.7646C6.49625 13.797 6.59362 13.927 6.59362 14.0894C6.56101 14.2194 6.43126 14.3491 6.26889 14.3491C6.26889 14.3491 6.3015 14.3491 6.26889 14.3491Z" fill="white"/>
<path d="M23.3448 13.4725C23.3124 13.3102 23.4098 13.1804 23.5722 13.1478C23.7345 13.1154 23.8643 13.2128 23.8969 13.3752C23.9293 13.5375 23.8319 13.6673 23.6695 13.6999H23.6046C23.4746 13.6997 23.3772 13.6023 23.3448 13.4725Z" fill="white"/>
<path d="M6.59354 12.5962C6.43118 12.5638 6.36619 12.4014 6.3988 12.2391C6.43118 12.0767 6.59354 12.0117 6.75591 12.0443C6.91827 12.0767 6.98326 12.2391 6.95066 12.4014C6.91827 12.5312 6.78829 12.5962 6.69092 12.5962H6.59354Z" fill="white"/>
<path d="M22.8579 11.8166C22.7929 11.6868 22.8579 11.5245 23.0203 11.4595C23.15 11.3945 23.3124 11.4595 23.3774 11.6218C23.4424 11.7516 23.3774 11.9466 23.215 11.979C23.1826 11.979 23.15 12.0113 23.1177 12.0113C22.9879 12.0116 22.8903 11.9466 22.8579 11.8166V11.8166Z" fill="white"/>
<path d="M7.24287 10.9405C7.11312 10.8755 7.04813 10.6807 7.1455 10.551C7.21049 10.4212 7.40524 10.3562 7.53499 10.4536C7.66475 10.5186 7.72974 10.7133 7.63237 10.8431C7.56738 10.9405 7.47 10.9729 7.37263 10.9729C7.34025 10.9729 7.30786 10.9729 7.24287 10.9405V10.9405Z" fill="white"/>
<path d="M22.0463 10.3236C21.9489 10.1938 21.9813 10.0314 22.1112 9.93408C22.241 9.8367 22.4034 9.86908 22.5007 9.99907C22.5981 10.1288 22.5657 10.2912 22.4358 10.3886C22.4034 10.4209 22.3384 10.4209 22.2734 10.4209C22.1762 10.4533 22.1112 10.3886 22.0463 10.3236V10.3236Z" fill="white"/>
<path d="M8.24926 9.44686C8.1195 9.34949 8.1195 9.15474 8.21688 9.05737C8.31425 8.92761 8.509 8.92761 8.60637 9.02498C8.73613 9.12236 8.73613 9.3171 8.63875 9.41448C8.57399 9.47924 8.509 9.51185 8.41162 9.51185C8.34663 9.51185 8.28164 9.51185 8.24926 9.44686V9.44686Z" fill="white"/>
<path d="M20.9425 8.99231C20.8452 8.89494 20.8452 8.70019 20.9425 8.60282C21.0399 8.50544 21.2347 8.50544 21.332 8.60282C21.4294 8.70019 21.4294 8.89494 21.332 8.99231C21.267 9.0573 21.2023 9.08968 21.1373 9.08968C21.0723 9.0573 21.0075 9.0573 20.9425 8.99231Z" fill="white"/>
<path d="M9.51525 8.21322C9.41788 8.08346 9.45026 7.9211 9.58024 7.82372C9.71 7.72635 9.87236 7.75873 9.96974 7.88872C10.0671 8.01847 10.0347 8.18084 9.90475 8.27821C9.83975 8.31059 9.80737 8.3432 9.74238 8.3432C9.64523 8.31059 9.54786 8.27821 9.51525 8.21322V8.21322Z" fill="white"/>
<path d="M19.6115 7.9212C19.4818 7.82382 19.4492 7.66146 19.5142 7.5317C19.6115 7.40195 19.7739 7.36934 19.9037 7.43433C20.0334 7.5317 20.066 7.69407 20.001 7.82382C19.936 7.9212 19.8713 7.95358 19.7737 7.95358C19.7089 7.95381 19.6439 7.95381 19.6115 7.9212V7.9212Z" fill="white"/>
<path d="M11.0087 7.23921C10.9437 7.10946 11.0087 6.91448 11.1384 6.84972C11.2682 6.78473 11.4305 6.84972 11.5279 6.97948C11.5929 7.10923 11.5279 7.3042 11.3981 7.36897C11.3658 7.40135 11.3332 7.40135 11.2684 7.40135C11.1384 7.40135 11.041 7.33659 11.0087 7.23921V7.23921Z" fill="white"/>
<path d="M18.0857 7.1421C17.9234 7.0771 17.8586 6.91474 17.9234 6.75238C17.9884 6.62262 18.1507 6.52502 18.2805 6.59001C18.4102 6.655 18.5078 6.81737 18.4428 6.94712C18.4105 7.0445 18.2805 7.14187 18.1831 7.14187C18.1507 7.1421 18.1183 7.1421 18.0857 7.1421V7.1421Z" fill="white"/>
<path d="M12.6642 6.59027C12.6318 6.42791 12.7292 6.29815 12.859 6.26554C13.0213 6.23316 13.1511 6.33053 13.1837 6.46029C13.2161 6.62265 13.1187 6.75241 12.989 6.78502H12.924C12.7942 6.81763 12.6966 6.72025 12.6642 6.59027Z" fill="white"/>
<path d="M16.3976 6.65496C16.2352 6.62258 16.1379 6.49259 16.1703 6.33023C16.2026 6.16786 16.3326 6.07049 16.495 6.10287C16.6573 6.13525 16.7547 6.26524 16.7223 6.4276C16.69 6.55736 16.5926 6.65496 16.4302 6.65496C16.4302 6.68734 16.4302 6.68734 16.3976 6.65496Z" fill="white"/>
<path d="M14.4174 6.29798C14.4174 6.13562 14.5471 6.00586 14.6771 6.00586C14.8395 6.00586 14.9692 6.13562 14.9692 6.2656C14.9692 6.42796 14.8395 6.55772 14.7095 6.55772C14.5471 6.55772 14.4174 6.42796 14.4174 6.29798V6.29798Z" fill="white"/>
<path d="M14.6445 25.2569C14.6445 25.0945 14.7743 24.9321 14.9693 24.9321C15.1316 24.9321 15.294 25.0619 15.294 25.2569C15.294 25.4192 15.1642 25.5816 14.9693 25.5816C14.7743 25.5492 14.6445 25.4192 14.6445 25.2569Z" fill="white"/>
<path d="M16.2353 25.1595C16.203 24.9971 16.3327 24.8347 16.4951 24.8024C16.6574 24.77 16.8198 24.8997 16.8522 25.0621C16.8846 25.2245 16.7548 25.3868 16.5924 25.4192H16.5601C16.3975 25.4518 16.2677 25.3218 16.2353 25.1595V25.1595Z" fill="white"/>
<path d="M13.3136 25.4192C13.1512 25.3868 13.0214 25.2245 13.0538 25.0621C13.0862 24.8997 13.2486 24.77 13.4109 24.8024C13.5733 24.8347 13.703 24.9971 13.6707 25.1595C13.6383 25.3218 13.5083 25.4192 13.3459 25.4192H13.3136V25.4192Z" fill="white"/>
<path d="M17.826 24.8674C17.761 24.705 17.8584 24.5103 18.0208 24.4779C18.1831 24.4129 18.3779 24.5103 18.4103 24.6726C18.4753 24.835 18.3779 25.0297 18.2155 25.0621H18.1182C17.9884 25.0621 17.8586 24.9974 17.826 24.8674V24.8674Z" fill="white"/>
<path d="M11.6903 25.0294C11.528 24.9644 11.4306 24.8021 11.4956 24.6399C11.5606 24.4776 11.7229 24.3802 11.8851 24.4452C12.0475 24.5102 12.1448 24.6725 12.0798 24.8347C12.0474 24.9644 11.9175 25.062 11.7877 25.062C11.7553 25.0618 11.7229 25.0618 11.6903 25.0294V25.0294Z" fill="white"/>
<path d="M19.3193 24.2831C19.2543 24.1207 19.2869 23.9259 19.4491 23.861C19.6114 23.796 19.8062 23.8286 19.8712 23.9907C19.9362 24.1531 19.9036 24.3478 19.7414 24.4128C19.709 24.4452 19.6441 24.4452 19.6117 24.4452C19.4817 24.4778 19.3843 24.4128 19.3193 24.2831L19.3193 24.2831Z" fill="white"/>
<path d="M10.1645 24.3805C10.0022 24.3155 9.93718 24.1207 10.0348 23.9584C10.0998 23.796 10.2945 23.731 10.4569 23.8286C10.6192 23.926 10.6842 24.0883 10.5866 24.2507C10.5216 24.3481 10.4243 24.4131 10.2945 24.4131C10.2619 24.4128 10.1971 24.4128 10.1645 24.3805H10.1645Z" fill="white"/>
<path d="M20.7152 23.5038C20.6178 23.374 20.6502 23.1467 20.7802 23.0493C20.91 22.9519 21.1373 22.9843 21.2347 23.1143C21.332 23.2441 21.2997 23.4714 21.1697 23.5688C21.1047 23.6012 21.0399 23.6338 20.9749 23.6338C20.8776 23.6335 20.7802 23.6012 20.7152 23.5038H20.7152Z" fill="white"/>
<path d="M8.76866 23.5038C8.6389 23.4064 8.60629 23.2117 8.70366 23.0493C8.80104 22.9195 8.99579 22.8869 9.15814 22.9843C9.2879 23.0817 9.32051 23.2764 9.22313 23.4388C9.15814 23.5362 9.06077 23.5685 8.9634 23.5685C8.86602 23.5688 8.80103 23.5688 8.76865 23.5038H8.76866Z" fill="white"/>
<path d="M21.9814 22.4976C21.8516 22.3678 21.8516 22.1729 21.9814 22.0431C22.1111 21.9134 22.3061 21.9134 22.4358 22.0431C22.5656 22.1729 22.5656 22.3678 22.4358 22.4976C22.3708 22.5626 22.3061 22.595 22.2085 22.595C22.1113 22.595 22.0463 22.5626 21.9813 22.4976H21.9814Z" fill="white"/>
<path d="M7.50259 22.4327C7.37283 22.3029 7.37283 22.1079 7.50259 21.9782C7.63235 21.8484 7.82732 21.8484 7.95707 21.9782C8.08683 22.1079 8.08683 22.3029 7.95707 22.4327C7.89208 22.4976 7.82731 22.53 7.72971 22.53C7.66495 22.53 7.56758 22.4976 7.50258 22.4327H7.50259Z" fill="white"/>
<path d="M23.0526 21.2963C22.9228 21.1989 22.8902 21.0041 22.9876 20.8418C23.085 20.712 23.2797 20.6794 23.4421 20.7768C23.5718 20.8742 23.6044 21.0689 23.5071 21.2313C23.4421 21.3286 23.3447 21.361 23.2473 21.361C23.1826 21.3612 23.1176 21.3612 23.0526 21.2963H23.0526Z" fill="white"/>
<path d="M6.43127 21.1664C6.33389 21.0366 6.36628 20.8093 6.49626 20.7119C6.62601 20.6145 6.85337 20.6469 6.95074 20.7769C7.04811 20.9067 7.01573 21.134 6.88575 21.2314C6.82076 21.2638 6.75599 21.2964 6.691 21.2964C6.59363 21.2961 6.49625 21.2638 6.43126 21.1664H6.43127Z" fill="white"/>
<path d="M23.9617 19.9654C23.7993 19.9004 23.7343 19.7057 23.8319 19.5433C23.8969 19.381 24.0916 19.316 24.254 19.4136C24.4164 19.4786 24.4813 19.6733 24.3837 19.8357C24.3188 19.933 24.2214 19.998 24.0916 19.998C24.059 19.9978 23.9943 19.9978 23.9616 19.9654H23.9617Z" fill="white"/>
<path d="M5.58727 19.7381C5.52228 19.5758 5.58727 19.381 5.71702 19.316C5.87939 19.251 6.07414 19.2837 6.13912 19.4458C6.20411 19.6082 6.13912 19.8029 6.00936 19.8679C5.97698 19.9003 5.91199 19.9003 5.87961 19.9003C5.7494 19.9329 5.61964 19.8681 5.58726 19.7381L5.58727 19.7381Z" fill="white"/>
<path d="M24.6109 18.5045C24.4485 18.4395 24.3511 18.2772 24.4161 18.115C24.4811 17.9527 24.6435 17.8553 24.8056 17.9203C24.968 17.9853 25.0654 18.1476 25.0004 18.3098C24.968 18.4395 24.838 18.5371 24.7082 18.5371C24.6756 18.5045 24.6433 18.5045 24.6109 18.5045Z" fill="white"/>
<path d="M4.97044 18.2121C4.90545 18.0497 5.00283 17.855 5.16519 17.8226C5.32756 17.7576 5.5223 17.855 5.55469 18.0174C5.61968 18.1797 5.5223 18.3745 5.35994 18.4069H5.26257C5.13281 18.4395 5.00283 18.3421 4.97044 18.2121Z" fill="white"/>
<path d="M25.0329 16.9461C24.8705 16.9137 24.7408 16.7513 24.7732 16.5889C24.8056 16.4266 24.9679 16.2968 25.1303 16.3292C25.2927 16.3616 25.4224 16.524 25.39 16.6863C25.3576 16.8487 25.2277 16.9461 25.0653 16.9461H25.0329H25.0329Z" fill="white"/>
<path d="M4.58079 16.5892C4.54841 16.4268 4.67817 16.2644 4.84053 16.232C5.0029 16.1997 5.16526 16.3294 5.19764 16.4918C5.23003 16.6541 5.10027 16.8165 4.93791 16.8489H4.90552C4.74316 16.8815 4.6134 16.7515 4.58079 16.5892V16.5892Z" fill="white"/>
<path d="M24.9031 15.0308C24.9031 14.8684 25.0328 14.7061 25.2278 14.7061C25.3902 14.7061 25.5525 14.8358 25.5525 15.0308C25.5525 15.1931 25.4228 15.3555 25.2278 15.3555C25.0328 15.3555 24.9031 15.1931 24.9031 15.0308Z" fill="white"/>
<path d="M4.77566 15.2579C4.61329 15.2579 4.45093 15.1281 4.45093 14.9331C4.45093 14.7708 4.61329 14.6084 4.77566 14.6084C4.93802 14.6084 5.10039 14.7708 5.10039 14.9331C5.10016 15.1279 4.9704 15.2579 4.77566 15.2579Z" fill="white"/>
<path d="M24.8056 13.6346C24.7733 13.4722 24.903 13.3098 25.0654 13.2774C25.2278 13.2451 25.3901 13.3748 25.4225 13.5372C25.4549 13.6996 25.3251 13.8619 25.1628 13.8943H25.1304C24.968 13.9267 24.8056 13.7967 24.8056 13.6346V13.6346Z" fill="white"/>
<path d="M4.873 13.6672C4.71064 13.6349 4.58088 13.4725 4.61326 13.3101C4.64565 13.1478 4.80801 13.018 4.97038 13.0504C5.13274 13.0828 5.2625 13.2451 5.23011 13.4075C5.19773 13.5699 5.06775 13.6672 4.90538 13.6672H4.873H4.873Z" fill="white"/>
<path d="M24.4485 12.1415C24.3835 11.9791 24.4809 11.7844 24.6759 11.752C24.8382 11.687 25.033 11.7844 25.0654 11.9794C25.1304 12.1417 25.033 12.3365 24.838 12.3688H24.7406C24.6433 12.3362 24.5133 12.2712 24.4485 12.1415Z" fill="white"/>
<path d="M5.19766 12.0768C5.0353 12.0118 4.93792 11.8494 5.00292 11.6873C5.06791 11.5249 5.23027 11.4275 5.39241 11.4925C5.55477 11.5575 5.65215 11.7199 5.58716 11.882C5.58738 12.012 5.4574 12.1094 5.32764 12.1094C5.29504 12.1094 5.26265 12.1094 5.19766 12.0768Z" fill="white"/>
<path d="M23.8967 10.6804C23.8317 10.518 23.8967 10.3233 24.0591 10.2583C24.2215 10.1933 24.4162 10.2583 24.4812 10.4207C24.5462 10.583 24.4812 10.7778 24.3188 10.8428C24.2864 10.8751 24.2215 10.8751 24.1891 10.8751C24.0589 10.8428 23.9291 10.7778 23.8967 10.6804L23.8967 10.6804Z" fill="white"/>
<path d="M5.78196 10.5831C5.6196 10.4857 5.55461 10.3234 5.65221 10.161C5.74958 9.99863 5.91195 9.93364 6.07431 10.0312C6.23667 10.1286 6.30166 10.291 6.20406 10.4533C6.13907 10.5507 6.0417 10.6157 5.91194 10.6157C5.87933 10.6155 5.84672 10.6155 5.78196 10.5831H5.78196Z" fill="white"/>
<path d="M23.0851 9.34949C22.9877 9.21974 23.0201 8.99238 23.1501 8.89501C23.2798 8.79764 23.5072 8.83002 23.6045 8.96C23.7019 9.08976 23.6695 9.31712 23.5396 9.41448C23.4746 9.44686 23.4098 9.47947 23.3448 9.47947C23.2472 9.47925 23.1498 9.41448 23.0851 9.34949H23.0851Z" fill="white"/>
<path d="M6.59361 9.18737C6.46385 9.08999 6.43124 8.89525 6.52862 8.73289C6.62599 8.60313 6.82074 8.57052 6.98309 8.6679C7.11285 8.76527 7.14546 8.96002 7.04809 9.12238C6.9831 9.21975 6.88572 9.25213 6.78835 9.25213C6.72336 9.25236 6.65837 9.25236 6.5936 9.18737H6.59361Z" fill="white"/>
<path d="M22.1112 8.14848C21.9815 8.01872 21.9815 7.82375 22.1112 7.694C22.241 7.56424 22.436 7.56424 22.5657 7.694C22.6955 7.82375 22.6955 8.01873 22.5657 8.14848C22.5007 8.21347 22.436 8.24585 22.3384 8.24585C22.241 8.24585 22.1762 8.21324 22.1112 8.14848H22.1112Z" fill="white"/>
<path d="M7.63247 7.95365C7.50272 7.8239 7.50272 7.62892 7.63247 7.49917C7.76223 7.36942 7.9572 7.36942 8.08695 7.49917C8.2167 7.62893 8.21671 7.8239 8.08695 7.95365C8.02196 8.01864 7.9572 8.05103 7.8596 8.05103C7.76245 8.05103 7.69746 8.01842 7.63247 7.95365H7.63247Z" fill="white"/>
<path d="M20.9425 7.10973C20.8127 7.01236 20.7801 6.81761 20.8775 6.65525C20.9749 6.5255 21.1696 6.49289 21.332 6.59026C21.4617 6.68763 21.4943 6.88238 21.397 7.04474C21.332 7.14211 21.2346 7.1745 21.1372 7.1745C21.0722 7.17472 20.9749 7.14234 20.9425 7.10973H20.9425Z" fill="white"/>
<path d="M8.83361 6.88221C8.73624 6.75245 8.76862 6.5251 8.8986 6.42773C9.02836 6.33035 9.25571 6.36274 9.35308 6.49272C9.45045 6.62247 9.41807 6.84983 9.28809 6.9472C9.2231 6.97958 9.15833 7.01219 9.09334 7.01219C8.99574 7.01196 8.89837 6.97958 8.83361 6.88221H8.83361Z" fill="white"/>
<path d="M19.6116 6.26571C19.4492 6.16833 19.3842 6.00597 19.4818 5.84361C19.5792 5.68125 19.7739 5.61625 19.9039 5.71385C20.0663 5.81123 20.1313 6.00597 20.0337 6.13595C19.9687 6.23332 19.8713 6.29832 19.7415 6.29832C19.7089 6.3307 19.6765 6.29809 19.6115 6.26571H19.6116Z" fill="white"/>
<path d="M10.197 6.0057C10.132 5.84334 10.197 5.64859 10.3268 5.58361C10.4891 5.51862 10.6839 5.58361 10.7489 5.71336C10.8139 5.87573 10.7489 6.07047 10.6191 6.13546C10.5867 6.16784 10.5217 6.16784 10.4894 6.16784C10.3594 6.20045 10.2294 6.13546 10.197 6.0057L10.197 6.0057Z" fill="white"/>
<path d="M18.1831 5.64893C18.0208 5.58394 17.9234 5.42158 17.9884 5.22684C18.0534 5.06447 18.2157 4.9671 18.4105 5.03209C18.5728 5.09708 18.6702 5.25945 18.6052 5.45419C18.5729 5.58394 18.4429 5.68154 18.3131 5.68154C18.2481 5.68132 18.2157 5.68132 18.1831 5.64893H18.1831Z" fill="white"/>
<path d="M11.6579 5.35664C11.5929 5.19428 11.6903 4.99953 11.8852 4.96715C12.0476 4.90216 12.2423 4.99953 12.2747 5.1619C12.3397 5.32426 12.2423 5.51901 12.0474 5.55139H11.95C11.8202 5.58377 11.6903 5.51901 11.6579 5.35664V5.35664Z" fill="white"/>
<path d="M16.6898 5.29176C16.5274 5.25938 16.3977 5.09701 16.43 4.93465C16.4624 4.77228 16.6248 4.64253 16.7871 4.67491C16.9495 4.70729 17.0793 4.86966 17.0469 5.03202C17.0145 5.19439 16.8845 5.29176 16.7222 5.29176H16.6898V5.29176Z" fill="white"/>
<path d="M13.2162 4.96708C13.1838 4.80472 13.3135 4.64235 13.4759 4.60997C13.6383 4.57759 13.8006 4.70734 13.833 4.86971C13.8654 5.03207 13.7356 5.19444 13.5733 5.22682H13.5409C13.3785 5.22682 13.2488 5.12944 13.2162 4.96708V4.96708Z" fill="white"/>
<path d="M15.1315 5.12944C14.9691 5.12944 14.8068 4.96707 14.8068 4.80471C14.8068 4.64234 14.9691 4.47998 15.1315 4.47998C15.2939 4.47998 15.4562 4.64234 15.4562 4.80471C15.4562 4.99968 15.2939 5.12944 15.1315 5.12944Z" fill="white"/>
<path d="M14.6446 27.0423C14.4498 27.0423 14.2875 26.88 14.2875 26.6852C14.2875 26.4905 14.4498 26.3281 14.6446 26.3281C14.8393 26.3281 15.0017 26.4905 15.0017 26.6852C15.0017 26.9126 14.8393 27.0423 14.6446 27.0423Z" fill="white"/>
<path d="M15.7158 26.6851C15.6834 26.4904 15.8456 26.328 16.0405 26.2956C16.2353 26.2633 16.3977 26.4254 16.43 26.6204C16.4624 26.8151 16.3003 26.9775 16.1053 27.0099H16.0729C15.9106 27.0099 15.7482 26.8799 15.7158 26.6851V26.6851Z" fill="white"/>
<path d="M13.1837 26.9126C12.989 26.8802 12.859 26.6852 12.8916 26.4905C12.924 26.2957 13.119 26.1658 13.3137 26.1984C13.5084 26.2307 13.6384 26.4257 13.6058 26.6205C13.5734 26.7828 13.4111 26.9126 13.2487 26.9126H13.1837H13.1837Z" fill="white"/>
<path d="M17.1443 26.5229C17.1119 26.3282 17.2093 26.1335 17.404 26.1009C17.5988 26.0685 17.7935 26.1658 17.8261 26.3606C17.8585 26.5553 17.7612 26.7501 17.5664 26.7827H17.5014C17.339 26.7827 17.1767 26.6853 17.1443 26.5229H17.1443Z" fill="white"/>
<path d="M11.7229 26.6202C11.5281 26.5553 11.4308 26.3605 11.4632 26.1658C11.5281 25.971 11.7229 25.8736 11.9176 25.906C12.1124 25.971 12.2098 26.1658 12.1774 26.3605C12.145 26.5229 11.9826 26.6202 11.8203 26.6202H11.7229H11.7229Z" fill="white"/>
<path d="M18.5402 26.1659C18.4752 25.9712 18.5726 25.7765 18.7676 25.7115C18.9623 25.6465 19.1571 25.7439 19.222 25.9388C19.287 26.1336 19.1897 26.3283 18.9947 26.3933H18.8973C18.7349 26.3933 18.6052 26.2959 18.5402 26.1659H18.5402Z" fill="white"/>
<path d="M10.3269 26.101C10.1322 26.036 10.0672 25.8089 10.1322 25.6141C10.1972 25.4194 10.4243 25.3544 10.5866 25.4194C10.7814 25.4844 10.8464 25.7115 10.7814 25.9063C10.7164 26.036 10.5866 26.1336 10.4567 26.1336C10.4243 26.1334 10.3595 26.1334 10.3269 26.101H10.3269Z" fill="white"/>
<path d="M19.9037 25.6463C19.8064 25.484 19.8713 25.2568 20.0661 25.1595C20.2285 25.0621 20.4556 25.1271 20.553 25.3218C20.6503 25.4842 20.5853 25.7113 20.3906 25.8087C20.3256 25.8411 20.2932 25.8411 20.2282 25.8411C20.0661 25.8411 19.9363 25.7761 19.9037 25.6463H19.9037Z" fill="white"/>
<path d="M8.99583 25.4516C8.83347 25.3542 8.76848 25.1268 8.86608 24.9647C8.96345 24.8023 9.1908 24.7373 9.35294 24.8349C9.5153 24.9323 9.58029 25.1597 9.48269 25.3218C9.4177 25.4516 9.28795 25.5166 9.15796 25.5166C9.12581 25.5163 9.06082 25.4839 8.99583 25.4516H8.99583Z" fill="white"/>
<path d="M21.1698 24.9645C21.0724 24.8021 21.1048 24.575 21.2672 24.4776C21.4295 24.3803 21.6566 24.4127 21.754 24.575C21.8514 24.7374 21.819 24.9645 21.6566 25.0619C21.5917 25.0943 21.5269 25.1269 21.4619 25.1269C21.3321 25.1269 21.2348 25.0619 21.1698 24.9645H21.1698Z" fill="white"/>
<path d="M7.76225 24.6401C7.59989 24.5104 7.56751 24.283 7.69726 24.1206C7.82702 23.9583 8.05437 23.9259 8.18412 24.0557C8.34649 24.1854 8.37887 24.4128 8.24911 24.5751C8.18412 24.6725 8.08675 24.7049 7.95699 24.7049C7.892 24.7049 7.82701 24.6725 7.76225 24.6401H7.76225Z" fill="white"/>
<path d="M22.3385 24.1206C22.2087 23.9583 22.2411 23.7312 22.3709 23.6012C22.5332 23.4714 22.7604 23.5038 22.8903 23.6336C23.0201 23.7959 22.9877 24.0231 22.858 24.153C22.793 24.218 22.6956 24.2504 22.6306 24.2504C22.5008 24.2504 22.4035 24.218 22.3385 24.1206H22.3385Z" fill="white"/>
<path d="M6.626 23.666C6.49624 23.5362 6.46363 23.3089 6.626 23.1465C6.75575 23.0167 6.98311 22.9841 7.14547 23.1465C7.27522 23.2763 7.30783 23.5036 7.14547 23.666C7.08048 23.731 6.9831 23.7633 6.88573 23.7633C6.78836 23.7633 6.72336 23.7307 6.62599 23.666H6.626Z" fill="white"/>
<path d="M23.3773 23.1466C23.2149 23.0168 23.2149 22.7895 23.3449 22.6271C23.4746 22.4648 23.702 22.4648 23.8643 22.5948C24.0267 22.7245 24.0267 22.9519 23.8967 23.1142C23.8317 23.1792 23.7344 23.244 23.637 23.244C23.5396 23.244 23.4422 23.2116 23.3772 23.1466H23.3773Z" fill="white"/>
<path d="M5.6521 22.5947C5.52234 22.4323 5.55472 22.2052 5.71709 22.0752C5.87945 21.9454 6.10658 21.9778 6.23656 22.1402C6.36631 22.3025 6.33393 22.5297 6.17157 22.6597C6.10657 22.7246 6.0092 22.7246 5.94421 22.7246C5.81445 22.7244 5.71708 22.6597 5.65209 22.5947H5.6521Z" fill="white"/>
<path d="M24.3187 22.0756C24.1563 21.9458 24.1239 21.7508 24.2213 21.5887C24.3511 21.4263 24.546 21.3939 24.7082 21.4913C24.8705 21.6211 24.9029 21.816 24.8055 21.9782C24.7405 22.0756 24.6108 22.1405 24.5134 22.1405C24.4486 22.1405 24.3837 22.1079 24.3187 22.0756H24.3187Z" fill="white"/>
<path d="M4.77561 21.3936C4.67823 21.2312 4.71061 21.0041 4.90536 20.9067C5.06773 20.8093 5.29485 20.8417 5.39222 21.0365C5.4896 21.1988 5.45721 21.426 5.26247 21.5233C5.19748 21.5557 5.13271 21.5883 5.06772 21.5883C4.97035 21.5557 4.84036 21.4909 4.7756 21.3936H4.77561Z" fill="white"/>
<path d="M25.1303 20.8744C24.9679 20.777 24.9029 20.5497 24.9679 20.3876C25.0653 20.2252 25.2926 20.1602 25.4548 20.2578C25.6171 20.3552 25.6821 20.5825 25.6171 20.7447C25.5521 20.8744 25.4224 20.9394 25.2924 20.9394C25.2276 20.9068 25.1629 20.9068 25.1303 20.8744H25.1303Z" fill="white"/>
<path d="M4.0939 20.0628C3.99653 19.8681 4.0939 19.6733 4.25627 19.576C4.45101 19.4786 4.64576 19.576 4.74313 19.7383C4.8405 19.9331 4.74313 20.1278 4.58076 20.2252C4.51577 20.2576 4.48339 20.2576 4.4184 20.2576C4.25626 20.2899 4.12628 20.1926 4.0939 20.0628H4.0939Z" fill="white"/>
<path d="M25.7471 19.5756C25.5524 19.5106 25.455 19.2835 25.5524 19.1211C25.6174 18.9264 25.8445 18.829 26.0068 18.9264C26.2016 18.9914 26.299 19.2185 26.2016 19.3809C26.1366 19.5106 26.0068 19.6082 25.8769 19.6082C25.8445 19.6082 25.8121 19.6082 25.7471 19.5756H25.7471Z" fill="white"/>
<path d="M3.54204 18.6992C3.47705 18.5044 3.57442 18.3097 3.76939 18.2447C3.96414 18.1797 4.15889 18.2771 4.22387 18.472C4.28886 18.6668 4.19149 18.8615 3.99652 18.9265C3.96413 18.9265 3.93152 18.9589 3.89914 18.9589C3.73678 18.9589 3.57441 18.8613 3.54203 18.6992H3.54204Z" fill="white"/>
<path d="M26.234 18.2119C26.0393 18.1795 25.9093 17.9846 25.9743 17.7898C26.0067 17.5951 26.2017 17.4651 26.3964 17.5301C26.5912 17.5625 26.7211 17.7574 26.6561 17.9522C26.6238 18.1146 26.4614 18.2119 26.299 18.2119C26.2988 18.2445 26.2664 18.2445 26.234 18.2119H26.234Z" fill="white"/>
<path d="M3.18488 17.2708C3.1525 17.0761 3.28226 16.8813 3.477 16.8487C3.67175 16.8163 3.8665 16.9461 3.8991 17.1408C3.93148 17.3356 3.80173 17.5303 3.60698 17.5629H3.54199C3.34724 17.5629 3.21726 17.4332 3.18488 17.2708H3.18488Z" fill="white"/>
<path d="M26.5263 16.8163C26.3315 16.7839 26.2015 16.6215 26.2015 16.4268C26.2339 16.232 26.3963 16.1021 26.591 16.1021C26.7858 16.1344 26.9158 16.2968 26.9158 16.4915C26.8834 16.6863 26.7534 16.8163 26.5586 16.8163H26.5263V16.8163Z" fill="white"/>
<path d="M2.99011 15.7772C2.99011 15.5824 3.11987 15.4201 3.31484 15.3877C3.50959 15.3877 3.67195 15.5175 3.70434 15.7124C3.70434 15.9072 3.57458 16.0695 3.37961 16.1019H3.34722C3.15248 16.1343 3.02249 15.9719 2.99011 15.7772V15.7772Z" fill="white"/>
<path d="M26.299 15.0306V14.9982C26.299 14.8035 26.4613 14.6411 26.6561 14.6411C26.8508 14.6411 27.0132 14.8035 27.0132 14.9982V15.0306V15.063C27.0132 15.2577 26.8508 15.4201 26.6561 15.4201C26.4613 15.3877 26.299 15.2254 26.299 15.0306V15.0306Z" fill="white"/>
<path d="M3.31471 14.7062C3.11996 14.7062 2.95759 14.5114 2.98998 14.3167C2.98998 14.1219 3.18472 13.9595 3.37947 13.9919C3.57422 13.9919 3.73658 14.1867 3.7042 14.3814C3.70443 14.544 3.54206 14.7062 3.31471 14.7062C3.34731 14.7062 3.34731 14.7062 3.31471 14.7062Z" fill="white"/>
<path d="M26.2341 13.6021C26.2017 13.4074 26.3639 13.2126 26.5588 13.2126C26.7536 13.1803 26.9483 13.3424 26.9483 13.5374C26.9807 13.7321 26.8186 13.9269 26.6236 13.9269H26.5912C26.3963 13.9269 26.2341 13.7969 26.2341 13.6021V13.6021Z" fill="white"/>
<path d="M3.44459 13.2451C3.24984 13.2127 3.11986 13.0177 3.15247 12.823C3.18485 12.6283 3.37982 12.4983 3.57457 12.5309C3.76931 12.5633 3.89929 12.7582 3.86669 12.953C3.8343 13.1153 3.67194 13.2451 3.50957 13.2451C3.50957 13.2777 3.47697 13.2777 3.44458 13.2451H3.44459Z" fill="white"/>
<path d="M25.9744 12.2388C25.9094 12.044 26.0394 11.8493 26.2342 11.8167C26.4289 11.7843 26.6237 11.8817 26.6563 12.0764C26.7213 12.2712 26.5913 12.4659 26.3965 12.4985H26.2991C26.1366 12.4985 26.0068 12.4011 25.9744 12.2388H25.9744Z" fill="white"/>
<path d="M3.76928 11.8492C3.57453 11.7843 3.47716 11.5895 3.54192 11.3948C3.60692 11.2 3.80166 11.1026 3.9964 11.1674C4.19115 11.2324 4.28852 11.4272 4.22376 11.6219C4.19138 11.7843 4.02901 11.8816 3.86665 11.8816C3.83427 11.8816 3.80188 11.8816 3.76927 11.8492L3.76928 11.8492Z" fill="white"/>
<path d="M25.5524 10.908C25.4874 10.7132 25.5847 10.5185 25.7471 10.4535C25.9418 10.3885 26.1366 10.4859 26.2016 10.6482C26.2666 10.843 26.1692 11.0377 26.0068 11.1027C25.9745 11.1353 25.9095 11.1353 25.8771 11.1353C25.7147 11.1353 25.5847 11.0379 25.5523 10.908H25.5524Z" fill="white"/>
<path d="M4.22369 10.4859C4.02894 10.3886 3.96395 10.1938 4.06132 9.99908C4.15869 9.80433 4.35344 9.73934 4.54818 9.83671C4.74293 9.93408 4.80792 10.1288 4.71055 10.3236C4.64556 10.4533 4.5158 10.5183 4.38582 10.5183C4.32128 10.5183 4.28867 10.5183 4.22368 10.4859H4.22369Z" fill="white"/>
<path d="M24.9355 9.64197C24.8381 9.47961 24.9031 9.25248 25.0653 9.15511C25.2276 9.05774 25.4548 9.12273 25.5521 9.28487C25.6495 9.44723 25.5845 9.67436 25.4224 9.77173C25.39 9.83672 25.325 9.83672 25.2602 9.83672C25.1302 9.83672 25.0005 9.77196 24.9355 9.64197H24.9355Z" fill="white"/>
<path d="M4.87303 9.21963C4.71066 9.12226 4.64567 8.8949 4.74327 8.73277C4.84065 8.57041 5.068 8.50541 5.23013 8.60301C5.3925 8.70039 5.45749 8.92774 5.35989 9.08988C5.2949 9.18725 5.16514 9.25224 5.06777 9.25224C5.00278 9.25201 4.93779 9.25201 4.87302 9.21963H4.87303Z" fill="white"/>
<path d="M24.2214 8.47291C24.0916 8.31054 24.1564 8.08341 24.3188 7.98604C24.4811 7.85629 24.7083 7.92105 24.8056 8.08342C24.9354 8.24578 24.8706 8.47291 24.7083 8.57028C24.6433 8.60266 24.5785 8.63527 24.5135 8.63527C24.3838 8.60289 24.2864 8.57028 24.2214 8.47291H24.2214Z" fill="white"/>
<path d="M5.68462 8.01854C5.52225 7.88878 5.48987 7.66143 5.61963 7.49907C5.74938 7.3367 5.97674 7.30432 6.13909 7.43408C6.30146 7.56383 6.33384 7.79119 6.20409 7.95355C6.1391 8.05092 6.04172 8.0833 5.91197 8.0833C5.81437 8.08353 5.74938 8.05115 5.68461 8.01854H5.68462Z" fill="white"/>
<path d="M23.3448 7.36942C23.2151 7.20706 23.2151 6.97993 23.3772 6.84995C23.5396 6.7202 23.7667 6.7202 23.8967 6.88234C24.0264 7.01209 24.0264 7.23945 23.8643 7.40181C23.7993 7.4668 23.7019 7.49918 23.6369 7.49918C23.507 7.49918 23.4096 7.4668 23.3448 7.36942H23.3448Z" fill="white"/>
<path d="M6.59353 6.91464C6.46378 6.78488 6.46378 6.55753 6.59353 6.39517C6.72329 6.26541 6.95064 6.26541 7.113 6.39517C7.24276 6.52492 7.24276 6.75228 7.113 6.91464C7.04801 6.97963 6.95064 7.01201 6.85326 7.01201C6.75589 7.04439 6.65829 6.97963 6.59353 6.91464H6.59353Z" fill="white"/>
<path d="M22.3384 6.42786C22.1761 6.2981 22.1761 6.07074 22.3061 5.90838C22.4358 5.74602 22.6632 5.74602 22.8255 5.876C22.9879 6.00576 22.9879 6.23311 22.8579 6.39547C22.7929 6.49285 22.6955 6.52523 22.5982 6.52523C22.5008 6.49262 22.4034 6.46024 22.3384 6.42786H22.3384Z" fill="white"/>
<path d="M7.66491 5.94085C7.53516 5.77849 7.56754 5.55136 7.7299 5.42138C7.89227 5.29163 8.1194 5.32401 8.21677 5.48637C8.34652 5.64874 8.31414 5.87587 8.15177 5.97324C8.08678 6.03823 8.02202 6.03823 7.92442 6.03823C7.82705 6.10322 7.72967 6.03823 7.66491 5.94085H7.66491Z" fill="white"/>
<path d="M21.2346 5.58356C21.0723 5.48619 21.0073 5.25883 21.1373 5.0967C21.2346 4.93434 21.462 4.86935 21.6241 4.99933C21.7865 5.0967 21.8515 5.32406 21.7215 5.48619C21.6565 5.58356 21.5268 5.64855 21.4294 5.64855C21.3646 5.64855 21.267 5.61617 21.2346 5.58356H21.2346Z" fill="white"/>
<path d="M8.83358 5.12928C8.73621 4.96691 8.8012 4.73978 8.96333 4.64242C9.1257 4.54504 9.35283 4.61004 9.4502 4.77217C9.54757 4.93454 9.48258 5.16167 9.32044 5.25903C9.25545 5.29164 9.19068 5.29164 9.15808 5.29164C9.02832 5.29164 8.89834 5.22665 8.83357 5.12928H8.83358Z" fill="white"/>
<path d="M20.001 4.90194C19.8387 4.80457 19.7413 4.60982 19.8387 4.41508C19.936 4.25272 20.1308 4.15534 20.3255 4.25272C20.4879 4.35009 20.5853 4.54484 20.4879 4.73958C20.4229 4.86933 20.2931 4.93432 20.1632 4.93432C20.131 4.93432 20.066 4.90194 20.001 4.90194L20.001 4.90194Z" fill="white"/>
<path d="M10.0997 4.44776C10.0347 4.25301 10.0997 4.05827 10.2944 3.9609C10.4892 3.89591 10.6839 3.9609 10.7813 4.15565C10.8463 4.35039 10.7813 4.54514 10.5866 4.64251H10.4242C10.2944 4.64251 10.1645 4.57752 10.0997 4.44776H10.0997Z" fill="white"/>
<path d="M18.735 4.35022C18.5402 4.28523 18.4429 4.09049 18.5076 3.89575C18.5726 3.701 18.7674 3.60362 18.9621 3.66839C19.1568 3.73338 19.2542 3.92813 19.1895 4.12287C19.1245 4.28523 18.9947 4.35022 18.8647 4.35022C18.8 4.38261 18.7676 4.35022 18.735 4.35022H18.735Z" fill="white"/>
<path d="M11.4307 3.8957C11.3657 3.70096 11.4957 3.50621 11.6905 3.44122C11.8852 3.37623 12.08 3.50621 12.1449 3.70096C12.2099 3.89571 12.08 4.09046 11.8852 4.15544H11.7878C11.6257 4.15521 11.4633 4.05784 11.4307 3.8957H11.4307Z" fill="white"/>
<path d="M17.404 3.96046C17.2092 3.92808 17.0792 3.73311 17.1442 3.53836C17.1766 3.34362 17.3716 3.21364 17.5663 3.27863C17.7611 3.31101 17.8911 3.50598 17.8261 3.70072C17.7937 3.86309 17.6313 3.99284 17.469 3.99284C17.4363 3.99307 17.404 3.99307 17.404 3.96046L17.404 3.96046Z" fill="white"/>
<path d="M12.8266 3.57109C12.7942 3.37634 12.924 3.1816 13.1187 3.14899C13.3135 3.11661 13.5082 3.24637 13.5408 3.44112C13.5732 3.63586 13.4435 3.83061 13.2487 3.86321H13.1837C13.0213 3.86321 12.859 3.73346 12.8266 3.57109H12.8266Z" fill="white"/>
<path d="M16.0081 3.76572C15.8133 3.73334 15.651 3.57098 15.6833 3.37623C15.7157 3.18148 15.8781 3.01912 16.0728 3.0515C16.2676 3.08388 16.4299 3.24625 16.3976 3.44099C16.3976 3.63597 16.2354 3.76572 16.0081 3.76572C16.0407 3.76572 16.0407 3.76572 16.0081 3.76572Z" fill="white"/>
<path d="M14.255 3.37615C14.255 3.18141 14.4174 3.01904 14.6121 3.01904C14.8069 3.01904 14.9692 3.18141 14.9692 3.37615C14.9692 3.5709 14.8069 3.73327 14.6121 3.73327C14.4174 3.73327 14.255 3.5709 14.255 3.37615Z" fill="white"/>
<path d="M14.9692 28.1784C14.9692 27.9511 15.1316 27.789 15.3587 27.7563C15.5861 27.7563 15.7482 27.9187 15.7808 28.1458C15.7808 28.3732 15.6185 28.5353 15.3913 28.5679C15.164 28.5356 15.0016 28.3732 14.9692 28.1784V28.1784Z" fill="white"/>
<path d="M14.0927 28.5358C13.8653 28.5358 13.7032 28.341 13.7356 28.1137C13.7356 27.8863 13.9303 27.7242 14.1577 27.7566C14.385 27.7566 14.5472 27.9513 14.5148 28.1787C14.5148 28.3734 14.3198 28.5358 14.0927 28.5358Z" fill="white"/>
<path d="M16.2353 28.1134C16.2029 27.886 16.3651 27.6913 16.5924 27.6589C16.8198 27.6265 17.0145 27.7887 17.0469 28.016C17.0793 28.2434 16.9172 28.4381 16.6898 28.4705H16.6248C16.4301 28.4381 16.2677 28.3081 16.2353 28.1134H16.2353Z" fill="white"/>
<path d="M12.7941 28.3735C12.5668 28.3411 12.437 28.1461 12.4694 27.919C12.5018 27.6916 12.6968 27.5619 12.9239 27.5943C13.1512 27.6267 13.281 27.8216 13.2486 28.0488C13.2162 28.2435 13.0539 28.3735 12.8591 28.3735H12.7941H12.7941Z" fill="white"/>
<path d="M17.5014 27.9189C17.469 27.6915 17.5988 27.4968 17.7935 27.432C18.0209 27.3671 18.2156 27.5294 18.2804 27.7242C18.3128 27.9515 18.183 28.1463 17.9883 28.211H17.8909C17.6962 28.2436 17.5338 28.1137 17.5014 27.9189H17.5014Z" fill="white"/>
<path d="M11.5281 28.1137C11.3008 28.0487 11.2034 27.854 11.236 27.6269C11.301 27.3995 11.4957 27.3021 11.7229 27.3347C11.9502 27.3997 12.0476 27.5945 12.015 27.8216C11.9826 27.984 11.8202 28.1137 11.6255 28.1137H11.5281H11.5281Z" fill="white"/>
<path d="M18.735 27.6267C18.67 27.4319 18.7674 27.2046 18.9947 27.1072C19.1895 27.0422 19.4168 27.1396 19.4816 27.3669C19.5466 27.5617 19.4492 27.789 19.2219 27.8864C19.1895 27.8864 19.1245 27.9188 19.0921 27.9188C18.93 27.8864 18.7676 27.7888 18.735 27.6267H18.735Z" fill="white"/>
<path d="M10.262 27.7243C10.0673 27.6593 9.93731 27.4321 10.0347 27.2048C10.0997 27.01 10.3268 26.8801 10.5541 26.9774C10.7489 27.0424 10.8789 27.2695 10.7815 27.4969C10.7165 27.6593 10.5541 27.7566 10.392 27.7566C10.3596 27.7243 10.327 27.7243 10.262 27.7243L10.262 27.7243Z" fill="white"/>
<path d="M19.9361 27.2046C19.8388 27.0099 19.9361 26.7825 20.1309 26.6852C20.3256 26.5878 20.553 26.6852 20.6504 26.8799C20.7477 27.0747 20.6504 27.302 20.4556 27.3994C20.3906 27.4318 20.3582 27.4318 20.2933 27.4318C20.1309 27.4644 20.0009 27.367 19.9361 27.2046H19.9361Z" fill="white"/>
<path d="M9.0933 27.2046C8.89855 27.1072 8.80118 26.8798 8.89855 26.6851C8.99593 26.4903 9.22328 26.393 9.41802 26.4903C9.61277 26.5877 9.71014 26.8151 9.61277 27.0098C9.54778 27.1396 9.38541 27.2372 9.25566 27.2372C9.19089 27.2369 9.1259 27.2369 9.09329 27.2046H9.0933Z" fill="white"/>
<path d="M21.0723 26.685C20.9749 26.4902 21.0399 26.2629 21.2347 26.1331C21.4294 26.0357 21.6568 26.1007 21.7865 26.2955C21.8839 26.4902 21.8189 26.7176 21.6242 26.8473C21.5592 26.8797 21.4944 26.9123 21.4294 26.9123C21.267 26.8797 21.1373 26.8149 21.0723 26.685H21.0723Z" fill="white"/>
<path d="M7.92456 26.5554C7.72982 26.4256 7.66483 26.1983 7.79481 26.0035C7.92456 25.8088 8.15192 25.7438 8.34666 25.8738C8.54141 26.0035 8.6064 26.2309 8.47642 26.4256C8.41142 26.5554 8.28167 26.6204 8.15169 26.6204C8.0867 26.6204 7.98932 26.6204 7.92456 26.5554H7.92456Z" fill="white"/>
<path d="M22.1761 26.036C22.0464 25.8412 22.1111 25.6139 22.2735 25.4841C22.4682 25.3544 22.6956 25.3867 22.8253 25.5815C22.9551 25.7762 22.8903 26.0036 22.728 26.1333C22.663 26.1657 22.5656 26.1983 22.5006 26.1983C22.3708 26.1983 22.2409 26.1657 22.1761 26.036H22.1761Z" fill="white"/>
<path d="M6.85324 25.841C6.69087 25.7112 6.62588 25.4515 6.78825 25.2891C6.918 25.1267 7.17774 25.0944 7.3401 25.2241C7.50246 25.3539 7.53485 25.6136 7.40509 25.776C7.3401 25.8733 7.21034 25.9383 7.08036 25.9383C7.01537 25.906 6.918 25.8733 6.85323 25.841H6.85324Z" fill="white"/>
<path d="M23.1825 25.289C23.0527 25.1266 23.0527 24.8669 23.2149 24.7372C23.3772 24.6074 23.637 24.6074 23.7667 24.7695C23.8965 24.9319 23.8965 25.1916 23.7343 25.3214C23.6693 25.3864 23.572 25.4188 23.4746 25.4188C23.3772 25.4514 23.2798 25.3864 23.1825 25.289H23.1825Z" fill="white"/>
<path d="M5.84686 24.9969C5.6845 24.8345 5.6845 24.6074 5.81448 24.445C5.97684 24.2826 6.20397 24.2826 6.36633 24.4126C6.5287 24.575 6.5287 24.8021 6.39871 24.9645C6.33395 25.0616 6.23658 25.0942 6.1392 25.0942C6.04183 25.0942 5.94445 25.0616 5.84686 24.9969H5.84686Z" fill="white"/>
<path d="M24.124 24.4778C23.9616 24.3155 23.9616 24.0883 24.124 23.926C24.2863 23.7636 24.5135 23.7636 24.6758 23.926C24.8382 24.0883 24.8382 24.3155 24.6758 24.4778C24.6108 24.5428 24.4811 24.6076 24.3837 24.6076C24.3187 24.5752 24.2213 24.5426 24.124 24.4778H24.124Z" fill="white"/>
<path d="M4.93789 24.0882C4.77552 23.9259 4.80813 23.6662 4.97027 23.5364C5.13263 23.374 5.39237 23.4066 5.52212 23.5688C5.68449 23.7311 5.65188 23.9909 5.48974 24.1206C5.42475 24.1856 5.32737 24.218 5.23 24.218C5.13285 24.2182 5.03525 24.1532 4.93788 24.0882H4.93789Z" fill="white"/>
<path d="M25.0004 23.5363C24.838 23.4065 24.8057 23.1468 24.9354 22.9844C25.0652 22.8221 25.3249 22.7897 25.4873 22.9194C25.6496 23.0492 25.682 23.3089 25.5523 23.4713C25.4873 23.5687 25.3575 23.6336 25.2275 23.6336C25.1628 23.6336 25.0654 23.6013 25.0004 23.5363H25.0004Z" fill="white"/>
<path d="M4.12633 23.0492C3.99657 22.8868 4.02895 22.6271 4.2237 22.4973C4.38607 22.3675 4.6458 22.3999 4.77555 22.5947C4.90531 22.757 4.87293 23.0168 4.67818 23.1465C4.61319 23.2115 4.51582 23.2115 4.45083 23.2115C4.3213 23.2115 4.19131 23.1789 4.12632 23.0492H4.12633Z" fill="white"/>
<path d="M25.7796 22.5298C25.5849 22.4001 25.5523 22.1727 25.6499 21.978C25.7796 21.7832 26.007 21.7506 26.2017 21.8482C26.3964 21.978 26.4291 22.2053 26.3315 22.4001C26.2665 22.5298 26.1367 22.5948 26.0067 22.5948C25.9094 22.5948 25.8444 22.5948 25.7796 22.5298H25.7796Z" fill="white"/>
<path d="M3.37973 21.9778C3.28236 21.783 3.31474 21.5557 3.50949 21.4259C3.70423 21.2962 3.93158 21.3609 4.06134 21.5557C4.15871 21.7504 4.12633 21.9778 3.93158 22.1075C3.86659 22.1399 3.80183 22.1725 3.73684 22.1725C3.60708 22.1725 3.4771 22.1075 3.37973 21.9778H3.37973Z" fill="white"/>
<path d="M26.4614 21.4586C26.2666 21.3613 26.2016 21.1015 26.299 20.9068C26.3964 20.712 26.6561 20.6471 26.8508 20.7444C27.0456 20.8418 27.1106 21.1015 27.0132 21.2963C26.9482 21.426 26.8185 21.5236 26.6561 21.5236C26.5587 21.5236 26.5263 21.4913 26.4613 21.4586H26.4614Z" fill="white"/>
<path d="M2.76293 20.8418C2.66556 20.6471 2.76293 20.4198 2.95768 20.3224C3.15243 20.225 3.37978 20.3224 3.47715 20.5171C3.57452 20.7119 3.47715 20.9392 3.2824 21.0366C3.21741 21.069 3.15265 21.069 3.12004 21.069C2.99028 21.0692 2.8603 20.9718 2.76293 20.8418H2.76293Z" fill="white"/>
<path d="M27.0132 20.3224C26.8184 20.2251 26.7211 19.9977 26.7858 19.803C26.8832 19.6082 27.1106 19.5109 27.3053 19.5756C27.5 19.673 27.5974 19.9003 27.5326 20.0951C27.4677 20.2575 27.3053 20.3548 27.1755 20.3548C27.1105 20.3548 27.0782 20.3548 27.0132 20.3224H27.0132Z" fill="white"/>
<path d="M2.27592 19.6406C2.21093 19.4459 2.30831 19.2185 2.50328 19.1211C2.69803 19.0561 2.92538 19.1535 3.02275 19.3485C3.08774 19.5432 2.99037 19.7706 2.79539 19.868C2.7304 19.868 2.69802 19.9003 2.66541 19.9003C2.50305 19.9003 2.34091 19.803 2.27592 19.6406H2.27592Z" fill="white"/>
<path d="M27.4677 19.1536C27.2404 19.0886 27.143 18.8615 27.208 18.6667C27.273 18.4394 27.5001 18.342 27.6949 18.407C27.9222 18.472 28.0196 18.6991 27.9546 18.8938C27.8896 19.0562 27.7599 19.186 27.5651 19.186C27.5651 19.186 27.5004 19.1536 27.4677 19.1536H27.4677Z" fill="white"/>
<path d="M1.88636 18.3747C1.82137 18.1473 1.95135 17.9526 2.17848 17.8878C2.40584 17.8228 2.60058 17.9528 2.66534 18.1799C2.73033 18.4073 2.60035 18.602 2.37322 18.6668H2.27585C2.11348 18.6668 1.95112 18.5694 1.88635 18.3747H1.88636Z" fill="white"/>
<path d="M27.8248 17.9526C27.5974 17.9202 27.4677 17.6928 27.5 17.4981C27.5324 17.2707 27.7598 17.141 27.9545 17.1734C28.1819 17.2058 28.3116 17.4331 28.2792 17.6279C28.2469 17.8226 28.0845 17.9526 27.8897 17.9526H27.8248H27.8248Z" fill="white"/>
<path d="M1.6267 17.1085C1.59432 16.8812 1.75646 16.6864 1.95143 16.654C2.17878 16.6217 2.37353 16.7838 2.40591 16.9788C2.43829 17.2061 2.27615 17.4009 2.08118 17.4333H2.01619C1.82144 17.4333 1.65908 17.3033 1.62669 17.1085H1.6267Z" fill="white"/>
<path d="M28.0196 16.6864C27.8248 16.654 27.6625 16.4917 27.6625 16.2646C27.6949 16.0372 27.8898 15.8751 28.0846 15.9074C28.3119 15.9398 28.4741 16.1348 28.4417 16.3295C28.4093 16.5243 28.2469 16.6866 28.0522 16.6866C28.0522 16.6864 28.0522 16.6864 28.0196 16.6864H28.0196Z" fill="white"/>
<path d="M1.49683 15.8098C1.49683 15.5824 1.6592 15.3877 1.88633 15.3877C2.11368 15.3877 2.30842 15.5501 2.30842 15.7772C2.30842 16.0045 2.14606 16.1993 1.91893 16.1993H1.88655C1.69157 16.1993 1.49683 16.0045 1.49683 15.8098H1.49683Z" fill="white"/>
<path d="M1.85385 14.9332C1.62649 14.9332 1.46436 14.7384 1.46436 14.5111C1.46436 14.2837 1.6591 14.1216 1.88645 14.1216C2.1138 14.1216 2.27595 14.3163 2.27595 14.5437C2.27595 14.7384 2.11358 14.9332 1.85385 14.9332C1.88646 14.9332 1.88646 14.9332 1.85385 14.9332Z" fill="white"/>
<path d="M27.6624 13.5699C27.6301 13.3426 27.7922 13.1478 28.0196 13.1154C28.2469 13.0831 28.4417 13.2452 28.474 13.4726C28.5064 13.6999 28.3443 13.8947 28.1169 13.927H28.0845C27.8574 13.927 27.6624 13.7647 27.6624 13.5699V13.5699Z" fill="white"/>
<path d="M27.7274 14.9982C27.695 14.7708 27.8571 14.5761 28.0845 14.5437C28.3119 14.5113 28.5066 14.6734 28.539 14.9008C28.5714 15.1281 28.4092 15.3229 28.1819 15.3553H28.1495C27.9221 15.3553 27.7598 15.1929 27.7274 14.9982V14.9982Z" fill="white"/>
<path d="M1.95123 13.6671C1.72387 13.6347 1.59412 13.4397 1.59412 13.2126C1.6265 12.9852 1.82147 12.8555 2.0486 12.8555C2.27595 12.8879 2.40571 13.0828 2.40571 13.3099C2.37333 13.5047 2.21096 13.6671 2.01621 13.6671H1.95122H1.95123Z" fill="white"/>
<path d="M27.4352 12.3688C27.4029 12.1414 27.5326 11.9467 27.7274 11.8819C27.9547 11.8495 28.1495 11.9793 28.2142 12.174C28.2466 12.4014 28.1169 12.5961 27.9221 12.6609H27.8247C27.6624 12.6611 27.5002 12.5311 27.4352 12.3688H27.4352Z" fill="white"/>
<path d="M2.14603 12.4012C1.91867 12.3362 1.78892 12.1415 1.85391 11.9143C1.9189 11.687 2.11365 11.5572 2.34077 11.6222C2.56812 11.6872 2.69788 11.882 2.63289 12.1091C2.60051 12.3038 2.43814 12.4012 2.2434 12.4012H2.14602H2.14603Z" fill="white"/>
<path d="M27.143 11.1673C27.078 10.9726 27.208 10.7452 27.4027 10.6805C27.5975 10.6155 27.8248 10.7455 27.8896 10.9402C27.9546 11.135 27.8246 11.3623 27.6299 11.4271C27.5975 11.4271 27.5649 11.4595 27.5001 11.4595C27.3377 11.4595 27.1754 11.3297 27.143 11.1673L27.143 11.1673Z" fill="white"/>
<path d="M2.43827 11.1677C2.24352 11.1027 2.11354 10.8756 2.17853 10.6482C2.24352 10.4535 2.47065 10.3235 2.698 10.3885C2.89275 10.4535 3.02273 10.6806 2.95774 10.908C2.89275 11.0703 2.73038 11.1677 2.56824 11.1677C2.53563 11.2003 2.47064 11.2003 2.43826 11.1677H2.43827Z" fill="white"/>
<path d="M26.7211 10.0313C26.6237 9.83656 26.7211 9.60921 26.9158 9.51183C27.1106 9.41446 27.3379 9.51183 27.4353 9.70658C27.5327 9.90133 27.4353 10.1287 27.2405 10.2261C27.1755 10.2584 27.1432 10.2584 27.0782 10.2584C26.9158 10.2584 26.786 10.1611 26.7211 10.0313H26.7211Z" fill="white"/>
<path d="M2.86027 9.999C2.66552 9.90163 2.56815 9.67427 2.66552 9.47953C2.76289 9.28478 2.99025 9.18741 3.18499 9.28478C3.37974 9.38216 3.47711 9.60951 3.37974 9.80425C3.31475 9.96662 3.15238 10.0316 3.02262 10.0316C2.99024 10.0316 2.92525 9.999 2.86026 9.999H2.86027Z" fill="white"/>
<path d="M26.1691 8.92763C26.0717 8.73288 26.1367 8.50553 26.3315 8.37577C26.5262 8.2784 26.7536 8.34339 26.8833 8.53814C26.9807 8.73289 26.9157 8.96023 26.721 9.08999C26.656 9.12237 26.5912 9.15498 26.5262 9.15498C26.3638 9.12237 26.2341 9.05761 26.1691 8.92763H26.1691Z" fill="white"/>
<path d="M3.41216 8.83023C3.21741 8.73285 3.15242 8.47311 3.2498 8.27837C3.34717 8.08363 3.60691 8.01863 3.80165 8.11601C3.99639 8.21338 4.06139 8.47312 3.96401 8.66786C3.89902 8.79762 3.76927 8.86261 3.6069 8.86261C3.54214 8.89522 3.47715 8.89522 3.41216 8.83023L3.41216 8.83023Z" fill="white"/>
<path d="M25.5199 7.88848C25.3901 7.69374 25.4549 7.46639 25.6172 7.33663C25.812 7.20687 26.0393 7.27164 26.1691 7.434C26.2988 7.62875 26.2341 7.8561 26.0717 7.98586C26.0067 8.01824 25.9093 8.05085 25.8444 8.05085C25.747 8.05085 25.6172 7.98586 25.5199 7.88848H25.5199Z" fill="white"/>
<path d="M4.06145 7.75893C3.8667 7.62917 3.83409 7.36943 3.96407 7.20708C4.09383 7.01233 4.35357 6.97972 4.51593 7.1097C4.71067 7.23946 4.74328 7.4992 4.6133 7.66155C4.54831 7.75893 4.41855 7.82392 4.28857 7.82392C4.22358 7.82392 4.12621 7.82392 4.06144 7.75893H4.06145Z" fill="white"/>
<path d="M24.8056 6.88251C24.6759 6.72014 24.6759 6.46041 24.8706 6.33066C25.033 6.2009 25.2927 6.2009 25.4225 6.39565C25.5522 6.55801 25.5522 6.81774 25.3575 6.9475C25.2925 7.01249 25.1951 7.04487 25.0977 7.04487C25.0004 7.04465 24.8704 6.97988 24.8056 6.88251H24.8056Z" fill="white"/>
<path d="M4.80811 6.75254C4.64575 6.62279 4.61337 6.36305 4.77573 6.20069C4.90549 6.03833 5.16522 6.00594 5.32758 6.16831C5.48995 6.29807 5.52233 6.5578 5.35997 6.72016C5.29497 6.81754 5.16522 6.84992 5.06784 6.84992C4.97047 6.84992 4.90548 6.81754 4.80811 6.75254L4.80811 6.75254Z" fill="white"/>
<path d="M23.9616 6.00566C23.7993 5.84329 23.7993 5.58356 23.9616 5.4538C24.124 5.29144 24.3837 5.29144 24.5135 5.4538C24.6758 5.61617 24.6758 5.8759 24.5135 6.00566C24.4485 6.07065 24.3187 6.13541 24.2213 6.13541C24.1566 6.10303 24.0266 6.07065 23.9616 6.00566H23.9616Z" fill="white"/>
<path d="M5.65212 5.81083C5.48976 5.64847 5.52236 5.38874 5.65212 5.25898C5.81449 5.09662 6.07422 5.09662 6.20397 5.25898C6.36634 5.42134 6.36634 5.68108 6.20397 5.81083C6.13898 5.87582 6.04161 5.90821 5.94424 5.90821C5.84686 5.90821 5.74949 5.8756 5.65211 5.81083H5.65212Z" fill="white"/>
<path d="M23.0527 5.16176C22.8903 5.03201 22.8579 4.77227 22.9877 4.60991C23.1174 4.44754 23.3772 4.41516 23.5395 4.54492C23.7019 4.67467 23.7343 4.93441 23.6045 5.09677C23.5395 5.19414 23.4098 5.22653 23.2798 5.22653C23.215 5.25914 23.1176 5.22653 23.0527 5.16176H23.0527Z" fill="white"/>
<path d="M6.59362 4.93466C6.46387 4.7723 6.49625 4.51256 6.65861 4.38281C6.82098 4.25305 7.08071 4.28543 7.21047 4.4478C7.34022 4.61016 7.30784 4.8699 7.14548 4.99965C7.08049 5.06464 6.98311 5.09703 6.88574 5.09703C6.78836 5.09703 6.65838 5.03203 6.59362 4.93466H6.59362Z" fill="white"/>
<path d="M22.0788 4.44741C21.884 4.31765 21.8514 4.09029 21.9814 3.89555C22.1112 3.70081 22.3385 3.6682 22.5333 3.79818C22.728 3.92793 22.7606 4.15529 22.6306 4.35003C22.5656 4.47979 22.4359 4.5124 22.3059 4.5124C22.2088 4.51217 22.1438 4.47979 22.0788 4.44741H22.0788Z" fill="white"/>
<path d="M7.6 4.18775C7.47025 3.993 7.53501 3.76565 7.72976 3.63589C7.92451 3.50614 8.15186 3.5709 8.28161 3.76565C8.41137 3.9604 8.3466 4.18775 8.15186 4.3175C8.08687 4.34988 8.0221 4.38249 7.9245 4.38249C7.79475 4.35011 7.66499 4.28512 7.6 4.18775H7.6Z" fill="white"/>
<path d="M21.0074 3.798C20.8126 3.70063 20.7476 3.44089 20.845 3.24615C20.9424 3.0514 21.2021 2.98641 21.3969 3.08378C21.5916 3.18116 21.6566 3.44089 21.5592 3.63563C21.4942 3.76539 21.3645 3.83038 21.2021 3.83038C21.1371 3.86299 21.0721 3.83061 21.0074 3.798L21.0074 3.798Z" fill="white"/>
<path d="M8.67131 3.50624C8.57393 3.31149 8.63892 3.08414 8.83367 2.95439C9.02842 2.85701 9.25577 2.92201 9.38552 3.11675C9.4829 3.3115 9.41791 3.53885 9.22316 3.6686C9.15817 3.70099 9.0934 3.70099 9.02841 3.70099C8.89843 3.73359 8.73629 3.6686 8.6713 3.50624L8.67131 3.50624Z" fill="white"/>
<path d="M19.9037 3.27898C19.7089 3.18161 19.6116 2.95426 19.6763 2.75951C19.7737 2.56477 20.0011 2.46739 20.1958 2.53216C20.3905 2.62953 20.4879 2.85689 20.4232 3.05163C20.3582 3.21399 20.1958 3.31137 20.066 3.31137C20.001 3.31137 19.9687 3.31137 19.9037 3.27899L19.9037 3.27898Z" fill="white"/>
<path d="M9.80754 2.95408C9.74255 2.75934 9.83992 2.53199 10.0349 2.43461C10.2296 2.36962 10.457 2.467 10.5544 2.66197C10.6194 2.85672 10.522 3.08407 10.327 3.18144C10.2946 3.21382 10.2296 3.21382 10.1973 3.21382C10.0349 3.21382 9.87253 3.11645 9.80753 2.95408L9.80754 2.95408Z" fill="white"/>
<path d="M18.7675 2.85677C18.5727 2.79178 18.4428 2.56465 18.5078 2.36991C18.5727 2.17516 18.7999 2.04518 18.9946 2.11017C19.222 2.17516 19.3193 2.40229 19.2544 2.59703C19.1894 2.7594 19.0596 2.88915 18.8649 2.88915C18.8322 2.88915 18.7999 2.88915 18.7675 2.85677L18.7675 2.85677Z" fill="white"/>
<path d="M11.0086 2.53209C10.9436 2.30473 11.0736 2.10999 11.2683 2.04523C11.4957 1.98024 11.6904 2.11022 11.7552 2.30497C11.8202 2.53232 11.6902 2.72706 11.4955 2.79183H11.3981C11.2033 2.79183 11.041 2.69445 11.0086 2.53209H11.0086Z" fill="white"/>
<path d="M17.5663 2.56489C17.339 2.5325 17.2092 2.30515 17.2416 2.11041C17.274 1.88305 17.5014 1.7533 17.6961 1.78568C17.9234 1.81806 18.0532 2.04542 18.0208 2.24016C17.9884 2.4349 17.8261 2.56489 17.6313 2.56489H17.5663H17.5663Z" fill="white"/>
<path d="M12.2098 2.20744C12.1774 1.98009 12.3071 1.78535 12.5345 1.75296C12.7618 1.72058 12.9566 1.85034 12.989 2.07769C13.0213 2.30505 12.8916 2.49979 12.6642 2.53217H12.5992C12.4371 2.53195 12.2747 2.36981 12.2097 2.20744H12.2098Z" fill="white"/>
<path d="M16.3651 2.37024C16.1378 2.33786 15.9756 2.14289 16.008 1.94815C16.0404 1.72079 16.2354 1.55865 16.4301 1.59104C16.6575 1.62342 16.8196 1.81839 16.7872 2.01313C16.7549 2.20788 16.5925 2.37024 16.3977 2.37024H16.3651H16.3651Z" fill="white"/>
<path d="M13.4759 1.98042C13.4435 1.75306 13.6057 1.55832 13.833 1.55832C14.0604 1.52594 14.2551 1.68808 14.2551 1.91543C14.2875 2.14279 14.1254 2.33753 13.898 2.33753H13.8656C13.6707 2.33753 13.4759 2.20777 13.4759 1.98042H13.4759Z" fill="white"/>
<path d="M15.1316 2.30487C14.9042 2.30487 14.7421 2.11012 14.7421 1.91537C14.7421 1.68802 14.9368 1.52588 15.1316 1.52588C15.3589 1.52588 15.5211 1.72063 15.5211 1.91537C15.5213 2.1425 15.3589 2.30487 15.1316 2.30487Z" fill="white"/>
<path d="M14.9367 30.0611C14.7094 30.0611 14.5146 29.8664 14.5146 29.6067C14.5146 29.3793 14.7094 29.1846 14.9691 29.1846C15.1965 29.1846 15.3912 29.3793 15.3912 29.639C15.3912 29.8664 15.1965 30.0611 14.9367 30.0611Z" fill="white"/>
<path d="M15.6185 29.6069C15.5861 29.3796 15.7809 29.1525 16.008 29.1525C16.2354 29.1201 16.4625 29.3148 16.4625 29.542C16.4949 29.7693 16.3001 29.9964 16.073 29.9964H16.0406C15.8133 30.0288 15.6185 29.8341 15.6185 29.6069V29.6069Z" fill="white"/>
<path d="M13.833 29.9965C13.6057 29.9641 13.4109 29.7691 13.4435 29.542C13.4759 29.3146 13.6709 29.1199 13.898 29.1525C14.1254 29.1849 14.3201 29.3799 14.2875 29.607C14.2551 29.8343 14.0927 29.9965 13.8654 29.9965H13.833V29.9965Z" fill="white"/>
<path d="M16.6898 29.5095C16.6574 29.2822 16.8195 29.0551 17.0469 29.0227C17.2743 28.9903 17.5014 29.1524 17.5338 29.3798C17.5661 29.6071 17.404 29.8343 17.1767 29.8667H17.1117C16.9169 29.899 16.7222 29.7367 16.6898 29.5095V29.5095Z" fill="white"/>
<path d="M12.6968 29.8666C12.4694 29.8343 12.3073 29.6069 12.3397 29.3798C12.3721 29.1524 12.5994 28.9903 12.8266 29.0227C13.0539 29.0551 13.216 29.2824 13.1837 29.5095C13.1513 29.7369 12.9563 29.8666 12.7616 29.8666H12.6968V29.8666Z" fill="white"/>
<path d="M17.761 29.3474C17.696 29.12 17.8584 28.8929 18.0858 28.8279C18.3131 28.7629 18.5402 28.9253 18.6052 29.1527C18.6702 29.38 18.5079 29.6071 18.2805 29.6721H18.1831C17.9882 29.7045 17.8258 29.5745 17.761 29.3474V29.3474Z" fill="white"/>
<path d="M11.593 29.6716C11.3657 29.6066 11.2035 29.3794 11.2683 29.1521C11.3333 28.9247 11.5604 28.7626 11.7878 28.8274C12.0151 28.8924 12.1772 29.1195 12.1125 29.3468C12.0801 29.5416 11.8851 29.6716 11.6904 29.6716H11.593V29.6716Z" fill="white"/>
<path d="M18.8324 29.1199C18.7674 28.8925 18.8974 28.633 19.1245 28.568C19.3519 28.503 19.6114 28.633 19.6764 28.8601C19.7414 29.0875 19.6114 29.347 19.3843 29.412C19.3519 29.412 19.2869 29.4444 19.2545 29.4444C19.0598 29.412 18.8974 29.3146 18.8324 29.1199V29.1199Z" fill="white"/>
<path d="M10.5216 29.3798C10.2943 29.3148 10.1645 29.055 10.2295 28.8279C10.2945 28.6006 10.5542 28.4708 10.7814 28.5358C11.0087 28.6008 11.1385 28.8605 11.0735 29.0876C11.0085 29.2824 10.8461 29.3798 10.6514 29.3798H10.5216Z" fill="white"/>
<path d="M19.8712 28.7955C19.7738 28.5682 19.9036 28.3086 20.131 28.2437C20.3583 28.1463 20.6178 28.276 20.6828 28.5034C20.7802 28.7307 20.6504 28.9903 20.4231 29.0552C20.3581 29.0876 20.3257 29.0876 20.2607 29.0876C20.131 29.0552 19.9362 28.9576 19.8712 28.7955H19.8712Z" fill="white"/>
<path d="M9.45042 28.9902C9.22306 28.8928 9.12569 28.6331 9.19068 28.406C9.28805 28.1786 9.54779 28.0813 9.77491 28.1462C10.0023 28.2436 10.0996 28.5034 10.0346 28.7305C9.96965 28.8928 9.80729 28.9902 9.61255 28.9902C9.54801 29.0226 9.5154 29.0226 9.45041 28.9902H9.45042Z" fill="white"/>
<path d="M20.91 28.3734C20.8127 28.1461 20.91 27.8865 21.1048 27.7892C21.3321 27.6918 21.5916 27.7892 21.689 27.9839C21.7864 28.2113 21.689 28.4708 21.4943 28.5682C21.4293 28.6005 21.3645 28.6005 21.2995 28.6005C21.1371 28.6331 20.9748 28.5358 20.91 28.3734H20.91Z" fill="white"/>
<path d="M8.41157 28.5357C8.18421 28.4383 8.11945 28.1786 8.21682 27.9515C8.31419 27.7241 8.57393 27.6594 8.80105 27.7567C9.02841 27.8541 9.09317 28.1138 8.9958 28.341C8.93081 28.5033 8.76844 28.6007 8.6063 28.6007C8.54131 28.5681 8.47655 28.5681 8.41156 28.5357H8.41157Z" fill="white"/>
<path d="M21.884 27.8865C21.7543 27.6917 21.8516 27.3996 22.0464 27.3022C22.2411 27.1725 22.5332 27.2698 22.6306 27.4646C22.7604 27.6593 22.663 27.9515 22.4682 28.0488C22.4033 28.0812 22.3385 28.1138 22.2409 28.1138C22.1114 28.1136 21.949 28.0486 21.884 27.8865H21.884Z" fill="white"/>
<path d="M7.43762 28.0161C7.24287 27.8864 7.1455 27.6266 7.27525 27.4319C7.40501 27.2371 7.66475 27.1398 7.85948 27.2695C8.05423 27.3993 8.1516 27.659 8.02185 27.8537C7.92447 27.9835 7.79449 28.0811 7.63235 28.0811C7.56759 28.0485 7.5026 28.0485 7.43761 28.0161H7.43762Z" fill="white"/>
<path d="M22.8254 27.3344C22.6957 27.1396 22.728 26.8475 22.9552 26.7175C23.1499 26.5878 23.442 26.6201 23.572 26.8473C23.7018 27.042 23.6694 27.3341 23.4423 27.4641C23.3773 27.5291 23.2799 27.5291 23.1826 27.5291C23.0526 27.5293 22.9228 27.4644 22.8254 27.3344H22.8254Z" fill="white"/>
<path d="M6.46368 27.3995C6.26893 27.2698 6.20394 26.9774 6.36631 26.7826C6.49606 26.5879 6.7884 26.5229 6.98317 26.6853C7.17792 26.815 7.24291 27.1074 7.08055 27.3021C6.98317 27.4319 6.85319 27.4969 6.72343 27.4969C6.62606 27.4645 6.56107 27.4645 6.4637 27.3995H6.46368Z" fill="white"/>
<path d="M23.7344 26.7178C23.572 26.5231 23.6046 26.2634 23.7994 26.101C23.9941 25.9386 24.2539 25.9712 24.4163 26.166C24.5786 26.3607 24.546 26.6205 24.3513 26.7828C24.2863 26.8478 24.1889 26.8802 24.0915 26.8802C23.9292 26.88 23.7994 26.8476 23.7344 26.7178H23.7344Z" fill="white"/>
<path d="M5.58724 26.7174C5.39249 26.555 5.35988 26.2953 5.52225 26.1005C5.68461 25.9058 5.94434 25.8732 6.13911 26.0356C6.33386 26.1979 6.36647 26.4576 6.2041 26.6524C6.10673 26.7498 5.97675 26.8148 5.87938 26.8148C5.74939 26.8148 5.65202 26.7822 5.58725 26.7174H5.58724Z" fill="white"/>
<path d="M24.5784 26.0356C24.4161 25.8733 24.4161 25.5812 24.611 25.4188C24.7734 25.2564 25.0655 25.2564 25.2279 25.4512C25.3903 25.6135 25.3903 25.9056 25.1955 26.068C25.0981 26.133 25.0008 26.1978 24.9034 26.1978C24.7732 26.1654 24.6758 26.133 24.5784 26.0356H24.5784Z" fill="white"/>
<path d="M4.7107 25.9709C4.54834 25.8085 4.51595 25.5164 4.67832 25.354C4.84068 25.1916 5.1328 25.1593 5.29519 25.3216C5.45757 25.484 5.48993 25.7761 5.32757 25.9385C5.23019 26.0359 5.13282 26.0683 5.00284 26.0683C4.90546 26.1009 4.80809 26.0683 4.71072 25.9709H4.7107Z" fill="white"/>
<path d="M25.39 25.2892C25.2277 25.1269 25.1953 24.8348 25.3576 24.6724C25.52 24.51 25.8121 24.4776 25.9745 24.64C26.1369 24.8024 26.1693 25.0945 26.0069 25.2569C25.9095 25.3542 25.8121 25.3866 25.6822 25.3866C25.5524 25.419 25.455 25.354 25.39 25.2892L25.39 25.2892Z" fill="white"/>
<path d="M3.9316 25.1919C3.76924 25.0295 3.76924 24.7374 3.96398 24.575C4.12635 24.4127 4.41846 24.4127 4.58085 24.6074C4.74321 24.7698 4.74321 25.0619 4.54847 25.2243C4.45109 25.2893 4.35372 25.354 4.25635 25.354C4.12637 25.3217 4.02899 25.2893 3.93162 25.1919H3.9316Z" fill="white"/>
<path d="M26.1042 24.4777C25.9095 24.3153 25.8768 24.0556 26.0392 23.8608C26.2016 23.666 26.4613 23.6334 26.6561 23.7958C26.8508 23.9582 26.8834 24.2179 26.7211 24.4127C26.6237 24.51 26.4937 24.575 26.364 24.575C26.299 24.575 26.2016 24.5424 26.1042 24.4777H26.1042Z" fill="white"/>
<path d="M3.21732 24.3155C3.05495 24.1208 3.08756 23.861 3.28231 23.6986C3.47705 23.5363 3.73679 23.5689 3.89917 23.7636C4.06156 23.9584 4.02893 24.2181 3.83418 24.3805C3.76919 24.4455 3.67182 24.4779 3.57444 24.4779C3.41208 24.4779 3.28232 24.4453 3.21733 24.3155H3.21732Z" fill="white"/>
<path d="M26.786 23.6334C26.5913 23.5036 26.5263 23.2113 26.6563 23.0165C26.786 22.8218 27.0784 22.7568 27.2731 22.9192C27.4679 23.0489 27.5329 23.3413 27.4029 23.536C27.3055 23.6658 27.1755 23.7308 27.0458 23.7308C26.9482 23.6984 26.8834 23.666 26.786 23.6334H26.786Z" fill="white"/>
<path d="M2.53563 23.4062C2.40587 23.2114 2.43825 22.9193 2.66538 22.7893C2.86013 22.6595 3.15224 22.6919 3.28225 22.919C3.412 23.1138 3.37962 23.4059 3.15249 23.5359C3.0875 23.6009 2.99013 23.6009 2.89275 23.6009C2.76277 23.6009 2.63302 23.5359 2.53564 23.4062H2.53563Z" fill="white"/>
<path d="M27.4028 22.7246C27.2081 22.5948 27.1107 22.3351 27.2405 22.1404C27.3702 21.9456 27.63 21.8483 27.8247 21.978C28.0194 22.1078 28.1168 22.3675 27.9871 22.5622C27.9221 22.692 27.7597 22.7896 27.5976 22.7896C27.5326 22.7896 27.4676 22.7572 27.4028 22.7246H27.4028Z" fill="white"/>
<path d="M1.95128 22.4651C1.82152 22.2703 1.9189 21.9782 2.11364 21.8808C2.30839 21.7511 2.6005 21.8485 2.69787 22.0432C2.82763 22.238 2.73025 22.5301 2.53551 22.6274C2.47051 22.6598 2.40575 22.6924 2.30815 22.6924C2.17862 22.6924 2.01626 22.5951 1.95127 22.4651H1.95128Z" fill="white"/>
<path d="M27.9547 21.783C27.7273 21.6857 27.6625 21.4259 27.7599 21.1988C27.8573 20.9714 28.117 20.8741 28.3441 21.004C28.5715 21.1014 28.6363 21.3612 28.5389 21.5883C28.4739 21.7506 28.3115 21.848 28.1494 21.848C28.0844 21.8154 28.0194 21.783 27.9546 21.783H27.9547Z" fill="white"/>
<path d="M1.43188 21.4584C1.3345 21.231 1.43188 20.9715 1.62662 20.8741C1.85398 20.7768 2.11349 20.8741 2.21085 21.0689C2.30823 21.2962 2.21085 21.5557 2.01611 21.6531C1.95112 21.6855 1.88635 21.6855 1.82136 21.6855C1.65899 21.7181 1.49663 21.6207 1.43187 21.4584H1.43188Z" fill="white"/>
<path d="M28.4092 20.7767C28.1818 20.6793 28.0844 20.4196 28.1494 20.2248C28.2468 19.9975 28.5065 19.9001 28.7013 19.9651C28.9286 20.0625 29.026 20.3222 28.961 20.5169C28.896 20.6793 28.7337 20.8091 28.5389 20.8091C28.5065 20.8091 28.4739 20.8091 28.4092 20.7767V20.7767Z" fill="white"/>
<path d="M0.977421 20.4195C0.880047 20.1922 1.0098 19.9327 1.23716 19.8677C1.46451 19.7703 1.72402 19.9001 1.78901 20.1274C1.88639 20.3548 1.75663 20.6143 1.52927 20.6793C1.46428 20.7117 1.4319 20.7117 1.36691 20.7117C1.20477 20.7117 1.04241 20.6143 0.977415 20.4195H0.977421Z" fill="white"/>
<path d="M28.7987 19.7704C28.5714 19.7054 28.4416 19.4457 28.5066 19.2185C28.5716 18.9912 28.8313 18.8614 29.0585 18.9264C29.2858 18.9914 29.4156 19.2511 29.3506 19.4783C29.2856 19.673 29.1232 19.803 28.9285 19.803C28.8961 19.7704 28.8637 19.7704 28.7987 19.7704Z" fill="white"/>
<path d="M0.620247 19.3806C0.555256 19.1532 0.685238 18.8937 0.912368 18.8287C1.13972 18.7638 1.39923 18.8937 1.46422 19.1209C1.52921 19.3482 1.39923 19.6077 1.1721 19.6727C1.13972 19.6727 1.07473 19.7051 1.04234 19.7051C0.847371 19.6727 0.685006 19.543 0.620247 19.3806V19.3806Z" fill="white"/>
<path d="M29.1233 18.6989C28.8959 18.6339 28.7338 18.4068 28.7986 18.1794C28.8635 17.9521 29.0907 17.7899 29.318 17.8547C29.5454 17.9197 29.7075 18.1468 29.6428 18.3742C29.6104 18.5689 29.4154 18.6989 29.2207 18.6989C29.188 18.7313 29.1557 18.7313 29.1233 18.6989Z" fill="white"/>
<path d="M0.328047 18.2771C0.263056 18.0497 0.42542 17.8226 0.652776 17.7576C0.880131 17.6926 1.10726 17.855 1.17225 18.0823C1.23724 18.3097 1.07487 18.5368 0.847517 18.6018H0.750144C0.555397 18.6342 0.393032 18.4718 0.328047 18.2771Z" fill="white"/>
<path d="M29.3506 17.6279C29.1233 17.5955 28.9611 17.3681 28.9935 17.141C29.0259 16.9137 29.2532 16.7515 29.4804 16.7839C29.7077 16.8163 29.8699 17.0436 29.8375 17.2708C29.8051 17.4981 29.6101 17.6279 29.4154 17.6279C29.4156 17.6603 29.383 17.6603 29.3506 17.6279Z" fill="white"/>
<path d="M0.133271 17.1731C0.100889 16.9458 0.263027 16.7186 0.490383 16.6862C0.717738 16.6539 0.944862 16.816 0.977244 17.0434C1.00963 17.2707 0.847489 17.4978 0.620133 17.5302H0.555142C0.360621 17.5302 0.165648 17.4002 0.133271 17.1731Z" fill="white"/>
<path d="M29.5129 16.5565C29.2856 16.5242 29.0909 16.3292 29.1235 16.1021C29.1558 15.8747 29.3508 15.68 29.5779 15.7126C29.8053 15.7449 30 15.9399 29.9674 16.167C29.9674 16.3942 29.7727 16.5565 29.5129 16.5565C29.5129 16.5565 29.5453 16.5565 29.5129 16.5565Z" fill="white"/>
<path d="M0.00352363 16.0371C-0.0288583 15.8097 0.165888 15.5826 0.425621 15.5826C0.652976 15.5502 0.8801 15.745 0.8801 16.0047C0.912482 16.2321 0.717735 16.4592 0.458003 16.4592H0.425621C0.230648 16.4592 0.0359012 16.2645 0.00352452 16.0371H0.00352363Z" fill="white"/>
<path d="M29.1558 15.0305C29.1558 14.8031 29.3505 14.6084 29.5779 14.6084C29.8052 14.6084 30 14.8031 30 15.0305C30 15.2578 29.8052 15.4526 29.5779 15.4526C29.3505 15.485 29.1558 15.2902 29.1558 15.0305Z" fill="white"/>
<path d="M0.425392 15.3556C0.198037 15.3556 0.0032959 15.1608 0.0032959 14.9011C0.0032959 14.6737 0.198043 14.479 0.457775 14.479C0.685131 14.479 0.879872 14.6737 0.879872 14.9335C0.84749 15.1606 0.652742 15.3556 0.425392 15.3556Z" fill="white"/>
<path d="M29.1233 14.0892C29.1233 13.8619 29.2857 13.6348 29.5454 13.6348C29.7727 13.6348 29.9999 13.7971 29.9999 14.0569C29.9999 14.2842 29.8375 14.5113 29.5778 14.5113H29.5454C29.318 14.5111 29.1233 14.3164 29.1233 14.0892H29.1233Z" fill="white"/>
<path d="M0.425424 14.2842C0.198069 14.2519 0.00332779 14.0569 0.0359306 13.7974C0.0683124 13.57 0.263286 13.3753 0.522792 13.4079C0.750148 13.4403 0.944889 13.6352 0.912286 13.8947C0.879904 14.1221 0.717539 14.2842 0.490189 14.2842H0.425424Z" fill="white"/>
<path d="M29.026 13.1155C28.9936 12.8881 29.1557 12.661 29.4154 12.6286C29.6428 12.5962 29.8699 12.7584 29.9023 13.0181C29.9347 13.2455 29.7726 13.4726 29.5128 13.505H29.4478C29.2207 13.505 29.0583 13.3426 29.026 13.1155V13.1155Z" fill="white"/>
<path d="M0.522853 13.1801C0.295498 13.1477 0.13336 12.9204 0.165742 12.6933C0.198124 12.4659 0.42548 12.3038 0.652604 12.3362C0.879959 12.3685 1.0421 12.5959 1.00971 12.823C0.977333 13.0504 0.78236 13.1801 0.587618 13.1801H0.522853Z" fill="white"/>
<path d="M28.8312 12.0764C28.7662 11.849 28.9286 11.6219 29.156 11.5569C29.3833 11.4919 29.6104 11.6543 29.6754 11.8817C29.7404 12.109 29.578 12.3361 29.3507 12.4011H29.2533C29.0586 12.4335 28.8962 12.2711 28.8312 12.0764Z" fill="white"/>
<path d="M0.717643 12.1091C0.490288 12.0441 0.328149 11.8169 0.392914 11.5896C0.457905 11.3622 0.685035 11.2001 0.912385 11.2649C1.13974 11.3299 1.30188 11.557 1.23711 11.7843C1.20473 11.9791 1.00976 12.1091 0.815017 12.1091H0.717643Z" fill="white"/>
<path d="M28.5714 11.0378C28.5064 10.8105 28.6364 10.551 28.8635 10.486C29.0909 10.421 29.3504 10.551 29.4154 10.7781C29.4804 11.0054 29.3504 11.265 29.1233 11.3299C29.0909 11.3299 29.0259 11.3623 28.9935 11.3623C28.7988 11.3623 28.6364 11.2326 28.5714 11.0378V11.0378Z" fill="white"/>
<path d="M0.977326 11.0375C0.749971 10.9725 0.620215 10.7128 0.685206 10.4856C0.750197 10.2583 1.00993 10.1285 1.23706 10.1935C1.46441 10.2585 1.59417 10.5182 1.52918 10.7454C1.46419 10.9401 1.30182 11.0375 1.10708 11.0375C1.04232 11.0699 1.00993 11.0375 0.977326 11.0375Z" fill="white"/>
<path d="M28.2468 10.0313C28.1495 9.80399 28.2792 9.54449 28.5066 9.4795C28.7339 9.38212 28.9934 9.51188 29.0584 9.73923C29.1558 9.96659 29.026 10.2261 28.7987 10.2911C28.7337 10.3235 28.7013 10.3235 28.6363 10.3235C28.474 10.3235 28.3118 10.2261 28.2468 10.0313H28.2468Z" fill="white"/>
<path d="M1.30206 9.99908C1.07471 9.90171 0.977332 9.64197 1.07471 9.41485C1.17208 9.1875 1.43182 9.09012 1.65893 9.1875C1.88629 9.28487 1.98366 9.54461 1.88629 9.77173C1.8213 9.93409 1.65893 10.0315 1.4968 10.0315C1.39942 10.0317 1.36704 10.0317 1.30205 9.99908L1.30206 9.99908Z" fill="white"/>
<path d="M27.8248 9.05737C27.7275 8.83002 27.8248 8.57051 28.0522 8.47314C28.2795 8.37577 28.539 8.47314 28.6364 8.7005C28.7338 8.92785 28.6364 9.18736 28.4091 9.28473C28.3441 9.31711 28.2793 9.31711 28.2143 9.31711C28.0522 9.31711 27.8898 9.21974 27.8248 9.05737L27.8248 9.05737Z" fill="white"/>
<path d="M1.72407 8.99226C1.49671 8.89488 1.43195 8.63514 1.52932 8.40803C1.62669 8.18067 1.88643 8.11591 2.11355 8.21328C2.3409 8.31065 2.40567 8.57039 2.3083 8.79751C2.24331 8.95987 2.08094 9.05725 1.9188 9.05725C1.85381 9.02464 1.78882 9.02464 1.72406 8.99226H1.72407Z" fill="white"/>
<path d="M27.3379 8.11595C27.2081 7.8886 27.3055 7.62909 27.5002 7.53172C27.7276 7.40197 27.9871 7.49934 28.0845 7.69409C28.2142 7.92144 28.1168 8.18095 27.9221 8.27832C27.8571 8.3107 27.7923 8.34331 27.6947 8.34331C27.565 8.34331 27.4352 8.27832 27.3379 8.11595H27.3379Z" fill="white"/>
<path d="M2.21093 8.01855C2.01618 7.88879 1.91881 7.62906 2.04857 7.43432C2.17832 7.23957 2.43806 7.1422 2.6328 7.27196C2.82754 7.40171 2.92492 7.66145 2.79516 7.85619C2.69779 7.98594 2.56781 8.08354 2.40567 8.08354C2.3409 8.08354 2.27591 8.05116 2.21092 8.01855H2.21093Z" fill="white"/>
<path d="M26.7859 7.20686C26.6562 7.01211 26.7209 6.72 26.9157 6.59C27.1104 6.46024 27.4025 6.525 27.5325 6.71975C27.6623 6.9145 27.5975 7.20661 27.4028 7.33662C27.3378 7.40161 27.2404 7.40161 27.1754 7.40161C27.0131 7.40161 26.8833 7.33684 26.7859 7.20686H26.7859Z" fill="white"/>
<path d="M2.76287 7.07725C2.56813 6.94749 2.50314 6.65515 2.6655 6.46038C2.79526 6.26564 3.0876 6.20065 3.28237 6.36301C3.47711 6.49277 3.5421 6.78511 3.37974 6.97988C3.28237 7.10963 3.15238 7.17462 3.02263 7.17462C2.92525 7.14224 2.86026 7.10963 2.76289 7.07725H2.76287Z" fill="white"/>
<path d="M26.1691 6.36287C26.0067 6.16812 26.0393 5.90839 26.2341 5.746C26.4288 5.58364 26.6886 5.61625 26.851 5.81099C27.0133 6.00574 26.9807 6.26547 26.786 6.42786C26.721 6.49285 26.6236 6.52523 26.5262 6.52523C26.3962 6.52523 26.2665 6.46024 26.1691 6.36287H26.1691Z" fill="white"/>
<path d="M3.41219 6.1681C3.21744 6.00574 3.18483 5.746 3.3472 5.55123C3.50956 5.35646 3.76929 5.32388 3.96406 5.48624C4.15884 5.64861 4.19142 5.90834 4.02906 6.10311C3.93168 6.20048 3.8017 6.26547 3.70433 6.26547C3.57457 6.26547 3.4772 6.23287 3.41221 6.1681H3.41219Z" fill="white"/>
<path d="M25.4874 5.55127C25.325 5.35653 25.325 5.0968 25.5198 4.93441C25.6821 4.77204 25.9742 4.77204 26.1366 4.96679C26.299 5.16154 26.299 5.42127 26.1043 5.58366C26.0069 5.64865 25.9095 5.68103 25.8121 5.68103C25.7148 5.68103 25.5848 5.64865 25.4874 5.55127L25.4874 5.55127Z" fill="white"/>
<path d="M4.09388 5.32391C3.93152 5.16155 3.89913 4.86943 4.0615 4.70705C4.22386 4.54466 4.51598 4.5123 4.67836 4.67466C4.84075 4.83703 4.87311 5.12914 4.71075 5.29153C4.61337 5.38891 4.516 5.42129 4.38602 5.42129C4.28864 5.4539 4.19127 5.42129 4.0939 5.32391L4.09388 5.32391Z" fill="white"/>
<path d="M24.7408 4.77205C24.5784 4.60969 24.546 4.31757 24.7408 4.15519C24.9031 3.99282 25.1952 3.96044 25.3576 4.15519C25.52 4.31755 25.5524 4.60967 25.3576 4.77205C25.2603 4.86943 25.1629 4.90181 25.0329 4.90181C24.9355 4.90204 24.8381 4.86943 24.7408 4.77205H24.7408Z" fill="white"/>
<path d="M4.87301 4.54493C4.71064 4.38256 4.71064 4.09045 4.90539 3.92806C5.06775 3.7657 5.35987 3.7657 5.52225 3.96044C5.68462 4.15519 5.68462 4.41492 5.48987 4.57731C5.3925 4.6423 5.29513 4.70706 5.19775 4.70706C5.06777 4.67468 4.93779 4.6423 4.87302 4.54493L4.87301 4.54493Z" fill="white"/>
<path d="M23.9616 4.09046C23.7669 3.9281 23.7343 3.66837 23.8966 3.4736C24.059 3.27883 24.3187 3.24624 24.5135 3.40861C24.7083 3.57097 24.7409 3.8307 24.5785 4.02547C24.4811 4.12285 24.3511 4.18784 24.2538 4.18784C24.124 4.18784 24.0266 4.15523 23.9616 4.09046H23.9616Z" fill="white"/>
<path d="M5.6846 3.79842C5.52224 3.60367 5.55484 3.34394 5.74959 3.18155C5.94434 3.01918 6.20407 3.05179 6.36646 3.24654C6.52885 3.44129 6.49621 3.70102 6.30147 3.86341C6.23648 3.9284 6.1391 3.96078 6.04173 3.96078C5.87937 3.99339 5.74938 3.9284 5.68462 3.79842H5.6846Z" fill="white"/>
<path d="M23.1176 3.44102C22.9229 3.31126 22.8579 3.01892 23.0202 2.82415C23.15 2.62941 23.4423 2.56441 23.6371 2.72678C23.8319 2.85654 23.8968 3.14888 23.7345 3.34365C23.6371 3.4734 23.5071 3.53839 23.3774 3.53839C23.28 3.50601 23.1826 3.50601 23.1176 3.44102H23.1176Z" fill="white"/>
<path d="M6.52872 3.14876C6.39896 2.95401 6.46372 2.6619 6.65847 2.53189C6.85322 2.40213 7.14533 2.4669 7.27534 2.66165C7.40509 2.85639 7.34033 3.14851 7.14558 3.27851C7.08059 3.3435 6.98322 3.3435 6.91823 3.3435C6.75609 3.3435 6.62611 3.27874 6.52873 3.14876H6.52872Z" fill="white"/>
<path d="M22.2085 2.85674C22.0138 2.72699 21.9488 2.46725 22.0462 2.27251C22.1759 2.07777 22.4357 2.01278 22.6304 2.11015C22.8252 2.2399 22.9225 2.49964 22.7928 2.69438C22.6954 2.82413 22.5654 2.92173 22.4033 2.92173C22.3709 2.92173 22.3059 2.92173 22.2085 2.85674H22.2085Z" fill="white"/>
<path d="M7.43761 2.53197C7.30785 2.33722 7.40522 2.0451 7.59997 1.94774C7.82732 1.81798 8.08683 1.91536 8.1842 2.1101C8.31395 2.33746 8.21658 2.59696 8.02183 2.69433C7.95684 2.72671 7.89208 2.75932 7.79448 2.75932C7.66495 2.75932 7.53497 2.69433 7.4376 2.53197H7.43761Z" fill="white"/>
<path d="M21.2996 2.37019C21.0723 2.27281 21.0075 2.01307 21.1049 1.78596C21.2023 1.5586 21.462 1.49384 21.6891 1.59121C21.9165 1.68858 21.9812 1.94832 21.8839 2.17544C21.8189 2.3378 21.6565 2.40279 21.4944 2.40279C21.4294 2.40257 21.3646 2.40257 21.2996 2.37019H21.2996Z" fill="white"/>
<path d="M8.41149 2.01305C8.31412 1.7857 8.41149 1.52619 8.60624 1.42883C8.83359 1.33145 9.0931 1.42883 9.19047 1.62357C9.28784 1.85093 9.19047 2.11043 8.99572 2.2078C8.93073 2.24018 8.86596 2.24018 8.80097 2.24018C8.63861 2.27279 8.47647 2.17519 8.41148 2.01305L8.41149 2.01305Z" fill="white"/>
<path d="M20.3257 1.91559C20.0984 1.81821 20.001 1.55848 20.0984 1.33136C20.1958 1.104 20.4555 1.00663 20.6826 1.104C20.91 1.20138 21.0073 1.46111 20.91 1.68823C20.845 1.8506 20.6826 1.94797 20.5205 1.94797C20.4231 1.94797 20.3907 1.94797 20.3257 1.91559L20.3257 1.91559Z" fill="white"/>
<path d="M9.3855 1.5582C9.28813 1.33085 9.41788 1.07134 9.64524 1.00635C9.8726 0.908978 10.1321 1.03873 10.1971 1.26609C10.2945 1.49344 10.1647 1.75295 9.93735 1.81794C9.87236 1.85032 9.83998 1.85032 9.77499 1.85032C9.64524 1.85032 9.45026 1.72034 9.3855 1.5582L9.3855 1.5582Z" fill="white"/>
<path d="M19.3194 1.55848C19.092 1.49348 18.9623 1.23375 19.0272 1.00662C19.0922 0.779268 19.352 0.649512 19.5791 0.714503C19.8065 0.779494 19.9362 1.03923 19.8712 1.26636C19.8062 1.4611 19.6439 1.55848 19.4491 1.55848C19.4167 1.59086 19.3844 1.55848 19.3194 1.55848Z" fill="white"/>
<path d="M10.4243 1.16868C10.3593 0.941327 10.4893 0.68182 10.7164 0.616829C10.9438 0.551838 11.2033 0.68182 11.2683 0.90895C11.3333 1.13631 11.2033 1.39581 10.9762 1.4608C10.9438 1.4608 10.8788 1.49318 10.8464 1.49318C10.6517 1.49341 10.4893 1.36343 10.4243 1.16868V1.16868Z" fill="white"/>
<path d="M18.313 1.26629C18.0856 1.2013 17.9235 0.974168 17.9883 0.746818C18.0532 0.519463 18.2804 0.357324 18.5077 0.422089C18.7351 0.48708 18.8972 0.71421 18.8325 0.94156C18.8001 1.13631 18.6051 1.26629 18.4104 1.26629C18.3777 1.2989 18.3454 1.26629 18.313 1.26629V1.26629Z" fill="white"/>
<path d="M11.4632 0.876692C11.3982 0.649336 11.5606 0.422213 11.7879 0.357222C12.0153 0.292231 12.2424 0.454595 12.3074 0.681951C12.3724 0.909306 12.21 1.13643 11.9826 1.20142H11.8853C11.6903 1.20142 11.5279 1.07144 11.4632 0.876692V0.876692Z" fill="white"/>
<path d="M17.2741 1.07124C17.0467 1.03886 16.8846 0.811501 16.917 0.584377C16.9493 0.357021 17.1767 0.194883 17.4038 0.227265C17.6312 0.259647 17.7933 0.487003 17.7609 0.714127C17.7286 0.908874 17.5338 1.07124 17.3391 1.07124H17.2741V1.07124Z" fill="white"/>
<path d="M12.5344 0.649674C12.502 0.422318 12.6641 0.195195 12.8915 0.162812C13.1189 0.13043 13.346 0.292568 13.3784 0.519924C13.4107 0.747279 13.2486 0.974403 13.0213 1.00679H12.9563C12.7615 1.03917 12.5668 0.876803 12.5344 0.649674V0.649674Z" fill="white"/>
<path d="M16.2028 0.941461C15.9754 0.909079 15.7807 0.714106 15.8133 0.454599C15.8457 0.227244 16.0406 0.0325026 16.3001 0.0651054C16.5275 0.0974872 16.7222 0.292461 16.6896 0.551967C16.6572 0.779323 16.4623 0.941461 16.2675 0.941461H16.2028V0.941461Z" fill="white"/>
<path d="M13.6382 0.519421C13.6382 0.292065 13.8005 0.0649414 14.0603 0.0649414C14.2876 0.0649414 14.5148 0.227306 14.5148 0.487038C14.5148 0.714394 14.3524 0.941517 14.0927 0.941517H14.0603C13.8329 0.908909 13.6382 0.74677 13.6382 0.519421V0.519421Z" fill="white"/>
<path d="M15.164 0.876576C14.9367 0.876576 14.7419 0.681829 14.7419 0.422097C14.7419 0.194741 14.9367 0 15.1964 0C15.4238 0 15.6185 0.194747 15.6185 0.454479C15.5859 0.681835 15.3912 0.876576 15.164 0.876576Z" fill="white"/>
</svg>
