<svg width="30" height="42" viewBox="0 0 30 42" fill="none" xmlns="http://www.w3.org/2000/svg">
<path d="M26.9903 6.70279C26.9859 6.63683 26.9729 6.57288 26.9521 6.50993C26.9437 6.48582 26.9377 6.46205 26.9267 6.43861C26.8898 6.35926 26.8443 6.28326 26.7797 6.21897L20.7797 0.218969C20.7151 0.154348 20.6394 0.107806 20.559 0.0719863C20.5366 0.0616071 20.5148 0.0555797 20.4914 0.0478791C20.4261 0.025446 20.3602 0.011718 20.2912 0.00803572C20.2778 0.00736612 20.2651 0 20.25 0H0.75C0.336163 0 0 0.33516 0 0.75V38.25C0 38.6648 0.336163 39 0.75 39H3V41.25C3 41.6648 3.33616 42 3.75 42H29.25C29.6638 42 30 41.6648 30 41.25V10.5C30 10.3004 29.9213 10.1099 29.7804 9.96964L27 7.18959V6.74997C27 6.73356 26.9916 6.71916 26.9902 6.70276L26.9903 6.70279ZM24.4396 6H21V2.56037L24.4396 6ZM1.49988 1.5H19.4999V6.75C19.4999 7.16484 19.836 7.5 20.2499 7.5H25.4999V37.5H1.49988V1.5ZM28.4999 10.8103V40.5H4.49988V39H26.2499C26.6637 39 26.9999 38.6648 26.9999 38.25V9.31028L28.4999 10.8103Z" fill="#01579b"/>
<path d="M3.74969 19.5H23.2497C23.6635 19.5 23.9997 19.1648 23.9997 18.75C23.9997 18.3352 23.6635 18 23.2497 18H3.74969C3.33586 18 2.99969 18.3352 2.99969 18.75C2.99969 19.1648 3.33586 19.5 3.74969 19.5Z" fill="#01579b"/>
<path d="M3.74969 24.001H23.2497C23.6635 24.001 23.9997 23.6658 23.9997 23.251C23.9997 22.8361 23.6635 22.501 23.2497 22.501H3.74969C3.33586 22.501 2.99969 22.8361 2.99969 23.251C2.99969 23.6658 3.33586 24.001 3.74969 24.001Z" fill="#01579b"/>
<path d="M23.2497 28.501C23.6635 28.501 23.9997 28.1658 23.9997 27.751C23.9997 27.3361 23.6635 27.001 23.2497 27.001H3.74969C3.33586 27.001 2.99969 27.3361 2.99969 27.751C2.99969 28.1658 3.33586 28.501 3.74969 28.501H23.2497Z" fill="#01579b"/>
<path d="M3.74969 14.999H12.7497C13.1635 14.999 13.4997 14.6639 13.4997 14.249C13.4997 13.8342 13.1635 13.499 12.7497 13.499H3.74969C3.33586 13.499 2.99969 13.8342 2.99969 14.249C2.99969 14.6635 3.33586 14.999 3.74969 14.999Z" fill="#01579b"/>
</svg>
