<svg width="30" height="30" viewBox="0 0 30 30" fill="none" xmlns="http://www.w3.org/2000/svg">
<path d="M0 15C0 6.72917 6.72917 0 15 0C23.2708 0 30 6.72917 30 15C30 23.2708 23.2708 30 15 30C6.72917 30 0 23.2708 0 15ZM27.4405 15C27.4405 8.13988 21.8599 2.55952 15 2.55952C8.13988 2.55952 2.55952 8.14036 2.55952 15C2.55952 21.8596 8.14036 27.4405 15 27.4405C21.8596 27.4405 27.4405 21.8596 27.4405 15Z" fill="white"/>
<path d="M23.4262 10.0917C23.6701 9.66946 23.4706 9.32373 22.9828 9.32373H7.01672C6.52913 9.32373 6.3294 9.66948 6.57331 10.0917L14.5566 23.9179C14.8006 24.3406 15.2 24.3406 15.4437 23.9179L23.4262 10.0917Z" fill="white"/>
</svg>
