<svg width="30" height="31" viewBox="0 0 30 31" fill="none" xmlns="http://www.w3.org/2000/svg">
<path d="M6.89948 5.68555H7.37393C7.89669 5.68555 8.32088 5.26259 8.32088 4.73861V0.946944C8.3199 0.423947 7.89571 0 7.37293 0H6.89946C6.37548 0 5.95032 0.42394 5.95032 0.946944V4.73767C5.95032 5.26288 6.37548 5.68562 6.89946 5.68562L6.89948 5.68555Z" fill="white"/>
<path d="M20.0184 5.68555H20.4928C21.0156 5.68555 21.4398 5.26259 21.4398 4.73861V0.946944C21.4398 0.423947 21.0156 0 20.4928 0H20.0184C19.4944 0 19.0704 0.42394 19.0704 0.946944V4.73767C19.0702 5.26288 19.4944 5.68562 20.0184 5.68562V5.68555Z" fill="white"/>
<path d="M10.999 10.497C10.999 10.263 10.8068 10.0708 10.5716 10.0708H8.13221C7.89707 10.0708 7.70483 10.263 7.70483 10.497V12.3501C7.70483 12.5862 7.89609 12.7775 8.13221 12.7775H10.5719C10.807 12.7775 10.9993 12.5862 10.9993 12.3501L10.999 10.497Z" fill="white"/>
<path d="M15.3376 10.497C15.3376 10.263 15.1463 10.0708 14.9114 10.0708H12.5146C12.2807 10.0708 12.0895 10.263 12.0895 10.497V12.3501C12.0895 12.5862 12.2807 12.7775 12.5146 12.7775H14.9114C15.1466 12.7775 15.3376 12.5862 15.3376 12.3501V10.497Z" fill="white"/>
<path d="M16.8579 12.776H19.2547C19.4899 12.776 19.6809 12.5848 19.6809 12.3486V10.4955C19.6809 10.2616 19.4908 10.0693 19.2547 10.0693H16.8579C16.624 10.0693 16.4318 10.2616 16.4318 10.4955V12.3486C16.4315 12.5848 16.6237 12.776 16.8579 12.776V12.776Z" fill="white"/>
<path d="M21.2022 12.776H23.5967C23.8318 12.776 24.0241 12.5848 24.0241 12.3486V10.4955C24.0241 10.2616 23.8328 10.0693 23.5967 10.0693H21.2022C20.967 10.0693 20.7748 10.2616 20.7748 10.4955V12.3486C20.7748 12.5848 20.967 12.776 21.2022 12.776Z" fill="white"/>
<path d="M6.61517 14.2889C6.61517 14.0538 6.42392 13.8628 6.18682 13.8628H3.79322C3.55808 13.8628 3.36487 14.054 3.36487 14.2889V16.1409C3.36487 16.376 3.5571 16.567 3.79322 16.567H6.18682C6.42294 16.567 6.61517 16.3758 6.61517 16.1409V14.2889Z" fill="white"/>
<path d="M10.999 14.2889C10.999 14.0538 10.8068 13.8628 10.5716 13.8628H8.13221C7.89707 13.8628 7.70483 14.054 7.70483 14.2889V16.1409C7.70483 16.376 7.89609 16.567 8.13221 16.567H10.5719C10.807 16.567 10.9993 16.3758 10.9993 16.1409L10.999 14.2889Z" fill="white"/>
<path d="M15.3376 14.2889C15.3376 14.0538 15.1463 13.8628 14.9114 13.8628H12.5146C12.2807 13.8628 12.0895 14.054 12.0895 14.2889V16.1409C12.0895 16.376 12.2807 16.567 12.5146 16.567H14.9114C15.1466 16.567 15.3376 16.3758 15.3376 16.1409V14.2889Z" fill="white"/>
<path d="M16.4318 16.1404C16.4318 16.3756 16.623 16.5666 16.8579 16.5666H19.2547C19.4899 16.5666 19.6809 16.3753 19.6809 16.1404V14.2885C19.6809 14.0533 19.4908 13.8623 19.2547 13.8623H16.8579C16.624 13.8623 16.4318 14.0536 16.4318 14.2885V16.1404Z" fill="white"/>
<path d="M20.7754 16.1404C20.7754 16.3756 20.9676 16.5666 21.2028 16.5666H23.5973C23.8324 16.5666 24.0247 16.3753 24.0247 16.1404V14.2885C24.0247 14.0533 23.8334 13.8623 23.5973 13.8623H21.2028C20.9676 13.8623 20.7754 14.0536 20.7754 14.2885V16.1404Z" fill="white"/>
<path d="M6.61517 18.0819C6.61517 17.8458 6.42392 17.6558 6.18682 17.6558H3.79322C3.55808 17.6558 3.36487 17.8448 3.36487 18.0819V19.9339C3.36487 20.169 3.5571 20.36 3.79322 20.36H6.18682C6.42294 20.36 6.61517 20.17 6.61517 19.9339V18.0819Z" fill="white"/>
<path d="M10.999 18.0819C10.999 17.8458 10.8068 17.6558 10.5716 17.6558H8.13221C7.89707 17.6558 7.70483 17.8448 7.70483 18.0819V19.9339C7.70483 20.169 7.89609 20.36 8.13221 20.36H10.5719C10.807 20.36 10.9993 20.17 10.9993 19.9339L10.999 18.0819Z" fill="white"/>
<path d="M15.3376 18.0819C15.3376 17.8458 15.1463 17.6558 14.9114 17.6558H12.5146C12.2807 17.6558 12.0895 17.8448 12.0895 18.0819V19.9339C12.0895 20.169 12.2807 20.36 12.5146 20.36H14.9114C15.1466 20.36 15.3376 20.17 15.3376 19.9339V18.0819Z" fill="white"/>
<path d="M6.18764 21.4478H3.7931C3.55796 21.4478 3.36475 21.6378 3.36475 21.8739V23.7259C3.36475 23.961 3.55698 24.152 3.7931 24.152H6.1867C6.42282 24.152 6.61505 23.9608 6.61505 23.7259V21.8739C6.61505 21.639 6.4238 21.4478 6.18768 21.4478H6.18764Z" fill="white"/>
<path d="M10.5715 21.4478H8.13184C7.8967 21.4478 7.70447 21.6378 7.70447 21.8739V23.7259C7.70447 23.961 7.89572 24.152 8.13184 24.152H10.5715C10.8067 24.152 10.9989 23.9608 10.9989 23.7259V21.8739C10.9986 21.639 10.8064 21.4478 10.5715 21.4478Z" fill="white"/>
<path d="M14.9114 21.4478H12.5146C12.2807 21.4478 12.0895 21.6378 12.0895 21.8739V23.7259C12.0895 23.961 12.2807 24.152 12.5146 24.152H14.9114C15.1466 24.152 15.3376 23.9608 15.3376 23.7259V21.8739C15.3376 21.639 15.1466 21.4478 14.9114 21.4478V21.4478Z" fill="white"/>
<path d="M16.7286 24.1205C16.7286 27.7796 19.7056 30.7572 23.3634 30.7572C27.0224 30.7572 30 27.7803 30 24.1205C30 20.4608 27.0222 17.4839 23.3634 17.4839C19.7056 17.4849 16.7286 20.4617 16.7286 24.1205V24.1205ZM28.6348 24.1205C28.6348 27.0271 26.2699 29.39 23.3643 29.39C20.4588 29.39 18.0949 27.0261 18.0949 24.1205C18.0949 21.215 20.4588 18.8511 23.3643 18.8511C26.2696 18.8523 28.6348 21.215 28.6348 24.1205Z" fill="white"/>
<path d="M1.13786 27.3855H16.5384C16.2802 26.8473 16.0782 26.2794 15.9507 25.6807H1.70697V8.54016H25.6831V16.9092C26.2895 17.1047 26.8595 17.3783 27.3889 17.7123V3.69264C27.3889 3.06419 26.8804 2.55469 26.252 2.55469H22.0987V4.73738C22.0987 5.62275 21.3781 6.3434 20.4926 6.3434H20.0182C19.1318 6.3434 18.4111 5.62281 18.4111 4.73738V2.55563H8.98V4.73832C8.98 5.62369 8.2594 6.34435 7.37397 6.34435L6.89952 6.3441C6.01315 6.3441 5.2913 5.6235 5.2913 4.73807V2.55557H1.13795C0.509502 2.55557 0 3.06533 0 3.69352V26.2492C0.00122596 26.8766 0.509759 27.3852 1.13795 27.3852L1.13786 27.3855Z" fill="white"/>
<path d="M22.6616 20.2935V24.0469C22.6616 24.4699 23.0054 24.8137 23.4295 24.8137H26.7272C27.1501 24.8137 27.4951 24.4699 27.4951 24.0469C27.4951 23.623 27.1513 23.279 26.7272 23.279H24.1963V20.2933C24.1963 19.8704 23.8525 19.5254 23.4295 19.5254C23.0054 19.5256 22.6616 19.8706 22.6616 20.2936V20.2935Z" fill="white"/>
</svg>
