<svg width="30" height="29" viewBox="0 0 30 29" fill="none" xmlns="http://www.w3.org/2000/svg">
<path d="M29.6286 17.4873C29.6286 16.741 29.3398 16.0324 28.8337 15.5075C28.9349 15.4324 29.0285 15.3463 29.1188 15.26C29.6888 14.6864 30 13.9289 30 13.1264C30 11.4651 28.6464 10.1115 26.9851 10.1115L21.3149 10.1112C22.8412 7.05495 22.5412 4.26137 22.1962 2.80284C22.0725 2.28911 21.8475 1.80911 21.5213 1.37043C21.1912 0.939097 20.79 0.594062 20.3252 0.335382C19.3952 -0.17469 18.2478 -0.0996171 17.389 0.53784C16.774 0.998996 16.4065 1.73039 16.4065 2.49518V3.66884C16.4065 4.22391 16.2378 4.75258 15.9189 5.19882L12.4128 10.1526C11.1902 10.3514 10.2715 11.4089 10.2715 12.6726V24.8827C10.2715 26.2965 11.419 27.4401 12.8289 27.4401H26.4526C27.1013 27.4401 27.7125 27.1887 28.17 26.7312C28.6312 26.27 28.8862 25.6587 28.8862 25.0061C28.8862 24.4398 28.6837 23.8999 28.3311 23.4649C28.3874 23.4199 28.44 23.3749 28.4886 23.3223C28.9874 22.8274 29.2573 22.1674 29.2573 21.4623C29.2573 20.8023 29.0136 20.1798 28.5825 19.7034C28.6576 19.6435 28.725 19.5797 28.7962 19.5122C29.3322 18.9652 29.6285 18.2491 29.6285 17.4879L29.6286 17.4873ZM27.566 15.9309C28.1509 16.2386 28.5148 16.8347 28.5148 17.4834C28.5148 17.9485 28.3312 18.3908 28.001 18.7209C27.8247 18.8972 27.6259 19.0285 27.401 19.1185C27.1985 19.1972 27.0636 19.3848 27.0484 19.6061C27.0371 19.8234 27.1533 20.0262 27.3408 20.1274C27.8357 20.3937 28.1397 20.9038 28.1397 21.4586C28.1397 21.8635 27.9822 22.2422 27.701 22.5274C27.5512 22.6772 27.3785 22.7861 27.1873 22.8648C26.9885 22.9472 26.8572 23.1274 26.8423 23.3411C26.8235 23.5548 26.9323 23.7536 27.1122 23.8624C27.5172 24.1026 27.7685 24.5373 27.7685 24.9987C27.7685 25.3513 27.6299 25.6812 27.3785 25.9325C27.1311 26.18 26.7973 26.3189 26.4486 26.3189L12.8249 26.3184C12.03 26.3184 11.3813 25.6697 11.3813 24.8747V12.6686C11.3813 11.9035 11.9813 11.27 12.7462 11.2287C12.9186 11.2211 13.0724 11.1311 13.1736 10.9961L16.8223 5.84363C17.2761 5.20617 17.516 4.45621 17.516 3.66866V2.49499C17.516 2.08249 17.7184 1.68126 18.0485 1.43014C18.3297 1.2201 18.6711 1.11521 19.0085 1.11521C19.2748 1.11521 19.5447 1.1827 19.7849 1.31767C20.1111 1.49763 20.3998 1.74508 20.6288 2.04509C20.8613 2.35636 21.0224 2.69746 21.1087 3.06132C21.4462 4.49005 21.735 7.34383 19.8937 10.3851C19.7888 10.5575 19.7849 10.7714 19.8861 10.9475C19.9837 11.1238 20.1673 11.2287 20.3698 11.2287H26.9847C28.0347 11.2287 28.8859 12.0838 28.8859 13.1298C28.8859 13.636 28.6871 14.116 28.3308 14.4722C28.1208 14.6784 27.8882 14.8285 27.6372 14.9185C27.4271 14.9936 27.2846 15.1811 27.2696 15.4061C27.2471 15.62 27.3672 15.8337 27.566 15.9313L27.566 15.9309Z" fill="#01579b"/>
<path d="M6.50615 12.1289H1.25636C0.566308 12.1289 0 12.6913 0 13.3813V27.2601C0 27.9502 0.566308 28.5125 1.25636 28.5125H6.50615C7.19982 28.5125 7.76252 27.9502 7.76252 27.2601V13.382C7.76252 12.6919 7.20353 12.1293 6.50615 12.1293V12.1289ZM5.71853 27.6952C5.10357 27.6952 4.60473 27.1964 4.60473 26.5814C4.60473 25.9628 5.10722 25.4676 5.71853 25.4676C6.33716 25.4676 6.83233 25.9664 6.83233 26.5814C6.83625 27.1966 6.33743 27.6952 5.71853 27.6952Z" fill="#01579b"/>
</svg>
