<svg width="30" height="29" viewBox="0 0 30 29" fill="none" xmlns="http://www.w3.org/2000/svg">
<path d="M29.5 0H0.5C0.223886 0 0 0.213368 0 0.47651V28.1141C0 28.2405 0.0526789 28.3617 0.146429 28.4511C0.240178 28.5404 0.367411 28.5906 0.5 28.5906H29.5C29.6326 28.5906 29.7598 28.5404 29.8536 28.4511C29.9473 28.3617 30 28.2405 30 28.1141V0.47651C30 0.35015 29.9473 0.228894 29.8536 0.139549C29.7598 0.0502051 29.6326 0 29.5 0ZM1 0.95302H29V3.81208H1V0.95302ZM1 27.6376V4.7651H7V27.6376H1ZM8 27.6376V4.7651H29V27.6376H8Z" fill="#01579b"/>
<path d="M11 9.53034C11.5304 9.53034 12.0391 9.32953 12.4143 8.97214C12.7893 8.61455 13 8.12973 13 7.6243C13 7.11887 12.7893 6.63403 12.4143 6.27646C12.0391 5.91908 11.5303 5.71826 11 5.71826C10.4697 5.71826 9.96091 5.91908 9.58571 6.27646C9.21071 6.63405 9 7.11887 9 7.6243C9 8.12973 9.21071 8.61457 9.58571 8.97214C9.96094 9.32953 10.4697 9.53034 11 9.53034ZM11 6.67128C11.2652 6.67128 11.5196 6.77169 11.7071 6.95038C11.8946 7.12907 12 7.37158 12 7.6243C12 7.87702 11.8946 8.11953 11.7071 8.29822C11.5196 8.47691 11.2652 8.57732 11 8.57732C10.7348 8.57732 10.4804 8.47691 10.2929 8.29822C10.1054 8.11953 10 7.87702 10 7.6243C10 7.37158 10.1054 7.12907 10.2929 6.95038C10.4804 6.77169 10.7348 6.67128 11 6.67128Z" fill="#01579b"/>
<path d="M14 5.71826H20V6.67128H14V5.71826Z" fill="#01579b"/>
<path d="M21 5.71826H23V6.67128H21V5.71826Z" fill="#01579b"/>
<path d="M14 7.62402H22V8.57704H14V7.62402Z" fill="#01579b"/>
<path d="M9 10.4834H23V11.4364H9V10.4834Z" fill="#01579b"/>
<path d="M24 10.4834H26V11.4364H24V10.4834Z" fill="#01579b"/>
<path d="M27.5 12.3892H9.5C9.22389 12.3892 9 12.6025 9 12.8657V20.9663C9 21.0927 9.05268 21.214 9.14643 21.3033C9.24018 21.3926 9.36741 21.4429 9.5 21.4429H27.5C27.6326 21.4429 27.7598 21.3926 27.8536 21.3033C27.9473 21.214 28 21.0927 28 20.9663V12.8657C28 12.7393 27.9473 12.6181 27.8536 12.5287C27.7598 12.4394 27.6326 12.3892 27.5 12.3892ZM27 20.4898H10V13.3422H27V20.4898Z" fill="#01579b"/>
<path d="M2 1.90625H8V2.85927H2V1.90625Z" fill="#01579b"/>
<path d="M27 1.90625H28V2.85927H27V1.90625Z" fill="#01579b"/>
<path d="M25 1.90625H26V2.85927H25V1.90625Z" fill="#01579b"/>
<path d="M23 1.90625H24V2.85927H23V1.90625Z" fill="#01579b"/>
<path d="M2 5.71826H4.5V6.67128H2V5.71826Z" fill="#01579b"/>
<path d="M3 7.62402H6V8.57704H3V7.62402Z" fill="#01579b"/>
<path d="M3 9.53027H6V10.4833H3V9.53027Z" fill="#01579b"/>
<path d="M2 11.436H5V12.3891H2V11.436Z" fill="#01579b"/>
<path d="M3 13.3423H6V14.2953H3V13.3423Z" fill="#01579b"/>
<path d="M11 22.396C10.4696 22.396 9.96091 22.5968 9.58571 22.9542C9.21071 23.3118 9 23.7966 9 24.302C9 24.8075 9.21071 25.2923 9.58571 25.6499C9.96094 26.0073 10.4697 26.2081 11 26.2081C11.5303 26.2081 12.0391 26.0073 12.4143 25.6499C12.7893 25.2923 13 24.8075 13 24.302C13 23.7966 12.7893 23.3118 12.4143 22.9542C12.0391 22.5968 11.5303 22.396 11 22.396ZM11 25.2551C10.7348 25.2551 10.4804 25.1546 10.2929 24.976C10.1054 24.7973 10 24.5548 10 24.302C10 24.0493 10.1054 23.8068 10.2929 23.6281C10.4804 23.4494 10.7348 23.349 11 23.349C11.2652 23.349 11.5196 23.4494 11.7071 23.6281C11.8946 23.8068 12 24.0493 12 24.302C12 24.5548 11.8946 24.7973 11.7071 24.976C11.5196 25.1546 11.2652 25.2551 11 25.2551Z" fill="#01579b"/>
<path d="M14 22.396H20V23.349H14V22.396Z" fill="#01579b"/>
<path d="M21 22.396H23V23.349H21V22.396Z" fill="#01579b"/>
<path d="M14 24.3022H22V25.2553H14V24.3022Z" fill="#01579b"/>
<path d="M16.7641 19.0042C16.9266 19.0869 17.1237 19.0778 17.277 18.9804L20.277 17.0743C20.4254 16.9801 20.51 16.8178 20.4991 16.648C20.4879 16.4785 20.383 16.3272 20.2234 16.2513L17.2234 14.8218C17.0685 14.7479 16.8844 14.7558 16.7371 14.8428C16.5895 14.9296 16.5 15.0832 16.5 15.2483V18.5838C16.5 18.7596 16.6013 18.9212 16.7641 19.0042L16.7641 19.0042ZM17.5 16.0192L19.006 16.7368L17.5 17.6932V16.0192Z" fill="#01579b"/>
</svg>
