<svg width="30" height="25" viewBox="0 0 30 25" fill="none" xmlns="http://www.w3.org/2000/svg">
<path d="M10.8332 0L8.74982 4.16669H2.91661C1.3006 4.16669 0 5.46759 0 7.08329V22.0834C0 23.6994 1.3009 25 2.91661 25H27.0834C28.6994 25 30 23.6991 30 22.0834V7.08329C30 5.46729 28.6991 4.16669 27.0834 4.16669H21.2502L19.1668 0H10.8332ZM14.9999 7.50004C18.8971 7.50004 22.0831 10.6861 22.0831 14.5833C22.0831 18.4806 18.8971 21.6666 14.9999 21.6666C11.1026 21.6666 7.91656 18.4806 7.91656 14.5833C7.91656 10.6861 11.1026 7.50004 14.9999 7.50004ZM14.9999 10.0002C12.4538 10.0002 10.4163 12.0373 10.4163 14.5837C10.4163 17.1298 12.4538 19.1672 14.9999 19.1672C17.5459 19.1672 19.5834 17.1301 19.5834 14.5837C19.5834 12.0376 17.5462 10.0002 14.9999 10.0002Z" fill="white"/>
</svg>
