<svg width="30" height="31" viewBox="0 0 30 31" fill="none" xmlns="http://www.w3.org/2000/svg">
<path d="M29.7156 26.3437L22.1978 18.7944C25.3881 13.9931 24.7563 7.61248 20.6817 3.53772C18.3759 1.26343 15.3434 0 12.0899 0C8.83646 0 5.80408 1.26338 3.52979 3.53772C-1.1766 8.27581 -1.1766 15.9515 3.52979 20.658C7.60467 24.7329 13.9852 25.3646 18.7865 22.2059L26.3358 29.7552C26.6833 30.1027 27.2835 30.1027 27.6309 29.7552L29.7158 27.6704C30.0947 27.2914 30.0947 26.6913 29.7158 26.3437H29.7156ZM17.902 17.9099C14.7117 21.1002 9.49973 21.1002 6.27783 17.9099C3.08757 14.7197 3.08757 9.50772 6.27783 6.28581C9.46809 3.09555 14.68 3.09555 17.902 6.28581C21.0922 9.50755 21.0922 14.7196 17.902 17.9099Z" fill="white"/>
</svg>
