<svg width="30" height="30" viewBox="0 0 30 30" fill="none" xmlns="http://www.w3.org/2000/svg">
<path d="M29.1166 12.082L25.7728 11.5141C25.5836 10.9147 25.3312 10.347 25.0473 9.77903L27.0031 7.03463C27.2869 6.62447 27.2555 6.05678 26.9084 5.70972L24.227 3.02824C23.88 2.68123 23.3123 2.61808 22.9021 2.93362L20.1576 4.88939C19.6214 4.60553 19.022 4.35314 18.4226 4.16389L17.8863 0.851785C17.7917 0.347006 17.3816 0 16.8768 0H13.0914C12.5866 0 12.1767 0.347012 12.0818 0.851785L11.5141 4.19555C10.9147 4.38479 10.347 4.63718 9.77904 4.92104L7.03463 2.96528C6.62447 2.68142 6.05678 2.71289 5.70972 3.0599L3.02824 5.74138C2.68123 6.08839 2.61808 6.65609 2.93362 7.06629L4.88939 9.81069C4.60553 10.3469 4.35314 10.9463 4.16389 11.5458L0.851785 12.082C0.347006 12.1766 0 12.5868 0 13.0916V16.877C0 17.3818 0.347012 17.7917 0.851785 17.8865L4.19555 18.4542C4.38479 19.0537 4.63718 19.6214 4.92104 20.1893L2.96528 22.9337C2.68142 23.3439 2.71289 23.9116 3.0599 24.2586L5.74138 26.9401C6.08839 27.2871 6.65609 27.3503 7.06629 27.0347L9.81069 25.079C10.3469 25.3628 10.9463 25.6152 11.5458 25.8044L12.1135 29.1482C12.2081 29.653 12.6182 30 13.123 30H16.9084C17.4132 30 17.8231 29.653 17.918 29.1482L18.4542 25.7727C19.0537 25.5835 19.6214 25.3311 20.1893 25.0472L22.9337 27.003C23.3439 27.2869 23.9116 27.2554 24.2586 26.9084L26.9401 24.2269C27.2871 23.8799 27.3503 23.3122 27.0347 22.902L25.079 20.1576C25.3628 19.6213 25.6152 19.022 25.8044 18.4225L29.1482 17.8548C29.653 17.7602 30 17.35 30 16.8453L29.9998 13.0913C29.9683 12.5867 29.6213 12.1766 29.1165 12.0819L29.1166 12.082ZM14.9842 20.3785C11.9874 20.3785 9.58977 17.9494 9.58977 14.9841C9.58977 11.9873 12.0188 9.5897 14.9842 9.5897C17.9495 9.5897 20.3786 11.9873 20.3786 14.9841C20.3786 17.9809 17.981 20.3785 14.9842 20.3785Z" fill="white"/>
</svg>
