<svg width="30" height="34" viewBox="0 0 30 34" fill="none" xmlns="http://www.w3.org/2000/svg">
<path d="M18 16.2V32.9997C18 33.3308 17.7313 33.5999 17.3998 33.5999H12.5998C12.2688 33.5999 11.9996 33.3312 11.9996 32.9997L12.0001 16.2C12.0001 15.8689 12.2688 15.5998 12.6002 15.5998H17.4003C17.7313 15.6002 18 15.8689 18 16.2V16.2ZM29.3998 10.8003H24.5998C24.2688 10.8003 23.9996 11.069 23.9996 11.4004V33.0001C23.9996 33.3312 24.2683 33.6003 24.5998 33.6003H29.3998C29.7309 33.6003 30 33.3316 30 33.0001V11.4004C30 11.069 29.7313 10.8003 29.3998 10.8003V10.8003ZM5.4002 20.4003H0.600162C0.269117 20.4003 0 20.669 0 21.0005V33.0003C0 33.3314 0.268688 33.6005 0.600162 33.6005H5.4002C5.73124 33.6005 6.00036 33.3318 6.00036 33.0003V21.0005C6.00036 20.6695 5.73167 20.4008 5.4002 20.4008V20.4003ZM29.0998 0.000643312H24.2998C23.8026 0.000643312 23.4 0.403259 23.4 0.900458C23.4 1.39766 23.8026 1.80027 24.2998 1.80027H26.8402C15.389 12.1833 0.888478 14.9872 0.736338 15.0151C0.247924 15.1055 -0.0747529 15.5755 0.0156422 16.0639C0.108135 16.5565 0.580222 16.8758 1.06446 16.785C1.70856 16.6657 16.3664 13.8483 28.2001 3.00664V5.69985C28.2001 6.19705 28.6027 6.59967 29.0999 6.59967C29.5971 6.59967 29.9998 6.19705 29.9998 5.69985V0.899816C30.0002 0.405123 29.5888 0 29.1004 0L29.0998 0.000643312Z" fill="white"/>
</svg>
