<svg width="30" height="30" viewBox="0 0 30 30" fill="none" xmlns="http://www.w3.org/2000/svg">
<path d="M15 18.2868C18.7027 18.2868 21.7254 15.2641 21.7254 11.5614C21.7254 7.85867 18.7027 4.83594 15 4.83594C11.2973 4.83594 8.27454 7.85867 8.27454 11.5614C8.27454 15.2644 11.2973 18.2868 15 18.2868Z" fill="#01579b"/>
<path d="M15 0C6.72544 0 0 6.72544 0 15C0 23.2746 6.72544 30 15 30C23.2746 30 30 23.2746 30 15C30 6.72544 23.2746 0 15 0V0ZM15 2.26714C22.0277 2.26714 27.733 7.97236 27.733 15.0001C27.733 17.7205 26.864 20.252 25.3905 22.3301C24.0679 20.4032 22.0278 19.0807 19.723 18.7784C19.3074 18.7028 18.854 18.8161 18.5138 19.0807C17.4936 19.8363 16.2846 20.2143 15.0001 20.2143C13.7155 20.2143 12.5063 19.8363 11.4863 19.0807C11.1464 18.8161 10.7307 18.7028 10.2771 18.7784C7.97236 19.0807 5.89421 20.403 4.60964 22.3301C3.13609 20.252 2.26714 17.7205 2.26714 15.0001C2.26714 7.97243 7.97236 2.26714 15.0001 2.26714H15Z" fill="#01579b"/>
</svg>
